<svg id="Layer_1" data-name="Layer 1" xmlns="http://www.w3.org/2000/svg" viewBox="0 0 110 110"><defs><style>.cls-1{fill:#fff;}</style></defs><rect class="cls-1" width="110" height="110"/><path d="M22.83,72.72c0-2-3.27-.93-3.27-2.09,0-.52.48-.63,1.06-.63a1.31,1.31,0,0,1,.73.22,1.09,1.09,0,0,1,.46.61h.71V69.42h-.67v.43a2.17,2.17,0,0,0-1.4-.53c-.84,0-1.67.37-1.67,1.33,0,2.21,3.27,1,3.27,2.14,0,.62-.73.66-1.13.66a1.48,1.48,0,0,1-1.47-.91h-.67V74h.67v-.46a2.07,2.07,0,0,0,1.58.56C22,74.13,22.83,73.74,22.83,72.72Z" transform="translate(0)"/><path d="M13.05,70.09v-.67H11.51v.7h0a2,2,0,0,0-1.57-.8,2.41,2.41,0,0,0,0,4.81,2,2,0,0,0,1.57-.8h0V74h1.54v-.67h-.78V70.09ZM10,73.45A1.74,1.74,0,0,1,10,70a1.74,1.74,0,0,1,0,3.45Z" transform="translate(0)"/><path d="M16.45,73.45a.64.64,0,0,0-.64-.63.63.63,0,0,0-.62.63.62.62,0,0,0,.62.63A.63.63,0,0,0,16.45,73.45Z" transform="translate(0)"/><path d="M32.17,70.08v-.76a1.75,1.75,0,0,0-1.77,1h0v-.91H28.8v.67h.77v3.27H28.8V74h2.48v-.67h-.85V71.79C30.43,70.62,30.76,70.18,32.17,70.08Z" transform="translate(0)"/><path d="M25.62,72.82a.63.63,0,0,0-.63.63.64.64,0,0,0,1.27,0A.64.64,0,0,0,25.62,72.82Z" transform="translate(0)"/><path d="M34.29,74.08a.63.63,0,0,0,.64-.63.64.64,0,0,0-.64-.63.63.63,0,0,0,0,1.26Z" transform="translate(0)"/><polygon points="45.07 73.57 74.94 73.57 74.94 72.88 45.35 72.88 36.63 64.14 7.65 64.14 7.65 64.83 36.35 64.83 45.07 73.57"/><path d="M12.25,80.74V84H13v.67H11.49V84h0a1.76,1.76,0,0,1-.68.57,1.89,1.89,0,0,1-.88.23,2.14,2.14,0,0,1-1.66-.69,2.48,2.48,0,0,1-.61-1.72,2.44,2.44,0,0,1,.61-1.71A2.16,2.16,0,0,1,9.9,80a1.88,1.88,0,0,1,.88.22,1.76,1.76,0,0,1,.68.57h0v-.69H13v.66ZM8.48,82.36a1.93,1.93,0,0,0,.39,1.23,1.31,1.31,0,0,0,1.11.5,1.42,1.42,0,0,0,1-.47,1.79,1.79,0,0,0,.44-1.26A1.76,1.76,0,0,0,11,81.12a1.42,1.42,0,0,0-1-.47,1.29,1.29,0,0,0-1.11.51A1.88,1.88,0,0,0,8.48,82.36Z" transform="translate(0)"/><path d="M17,84.21v.46h-.67V83.18H17a1.16,1.16,0,0,0,.57.68,1.83,1.83,0,0,0,.9.23c.75,0,1.12-.22,1.12-.66A.47.47,0,0,0,19.3,83a1.46,1.46,0,0,0-.6-.17,6.32,6.32,0,0,1-.79-.1,5.62,5.62,0,0,1-.78-.17,1.16,1.16,0,0,1-.6-.43,1.33,1.33,0,0,1-.25-.84,1.11,1.11,0,0,1,.48-1,2.2,2.2,0,0,1,2.58.19v-.42H20v1.4H19.3a1.11,1.11,0,0,0-.45-.61,1.33,1.33,0,0,0-.73-.22c-.71,0-1.06.21-1.06.63a.47.47,0,0,0,.24.42,1.46,1.46,0,0,0,.6.19l.79.12a7.5,7.5,0,0,1,.78.18,1.25,1.25,0,0,1,.6.41,1.09,1.09,0,0,1,.25.76,1.18,1.18,0,0,1-.52,1.06,2.21,2.21,0,0,1-1.27.35A2,2,0,0,1,17,84.21Z" transform="translate(0)"/><path d="M24.14,84.21v.46h-.66V83.18h.66a1.15,1.15,0,0,0,.58.68,1.76,1.76,0,0,0,.89.23c.75,0,1.12-.22,1.12-.66a.47.47,0,0,0-.24-.42,1.46,1.46,0,0,0-.6-.17,6,6,0,0,1-.78-.1,5.46,5.46,0,0,1-.79-.17,1.16,1.16,0,0,1-.6-.43,1.39,1.39,0,0,1-.24-.84,1.11,1.11,0,0,1,.48-1A2,2,0,0,1,25.15,80a2.11,2.11,0,0,1,1.39.52v-.42h.66v1.4h-.7a1.13,1.13,0,0,0-.46-.61,1.33,1.33,0,0,0-.73-.22c-.7,0-1.06.21-1.06.63a.47.47,0,0,0,.24.42,1.56,1.56,0,0,0,.61.19l.78.12a7.14,7.14,0,0,1,.79.18,1.35,1.35,0,0,1,.6.41,1.14,1.14,0,0,1,.24.76A1.2,1.2,0,0,1,27,84.42a2.24,2.24,0,0,1-1.28.35A2,2,0,0,1,24.14,84.21Z" transform="translate(0)"/><path d="M34.91,82.66h-4a1.51,1.51,0,0,0,.51,1,1.53,1.53,0,0,0,1,.39,2.08,2.08,0,0,0,.92-.2,1.52,1.52,0,0,0,.6-.55h.85a1.76,1.76,0,0,1-.87,1,3,3,0,0,1-1.51.4,2.33,2.33,0,0,1-1.67-.68,2.3,2.3,0,0,1-.69-1.7A2.39,2.39,0,0,1,32.49,80a2.21,2.21,0,0,1,1.74.76A2.8,2.8,0,0,1,34.91,82.66Zm-4-.67h3.13a1.2,1.2,0,0,0-.47-.93,1.67,1.67,0,0,0-1.1-.41,1.51,1.51,0,0,0-1,.4A1.38,1.38,0,0,0,30.92,82Z" transform="translate(0)"/><path d="M38.85,80.08h.88v.66h-.88v2.6a1.21,1.21,0,0,0,.08.56c.06.08.18.11.36.11l.43,0v.69a2.88,2.88,0,0,1-.74.1,1,1,0,0,1-.79-.24,1.64,1.64,0,0,1-.19-1V80.74h-.79v-.66H38V78.49h.85Z" transform="translate(0)"/><path d="M9.53,90.79v.65a3,3,0,0,1,.67-.52,1.68,1.68,0,0,1,.78-.23,1.3,1.3,0,0,1,.75.23,1.54,1.54,0,0,1,.53.6,3.47,3.47,0,0,1,.82-.63,1.84,1.84,0,0,1,.88-.2,1.1,1.1,0,0,1,1,.5,1.93,1.93,0,0,1,.34,1.15v2.38h.64v.66H13.73v-.66h.69V92.25c0-.56-.26-.84-.79-.84a1.22,1.22,0,0,0-.68.25,2.15,2.15,0,0,0-.55.53v2.53h.66v.66H10.87v-.66h.68V92.25c0-.56-.26-.84-.79-.84a1.22,1.22,0,0,0-.68.25,2,2,0,0,0-.55.53v2.53h.7v.66H8v-.66h.73V91.46H8v-.67Z" transform="translate(0)"/><path d="M22.75,91.46v3.26h.77v.66H22v-.69h0a1.76,1.76,0,0,1-.68.57,1.91,1.91,0,0,1-.88.22,2.11,2.11,0,0,1-1.66-.68,2.48,2.48,0,0,1-.61-1.72,2.44,2.44,0,0,1,.61-1.71,2.15,2.15,0,0,1,1.66-.68,1.93,1.93,0,0,1,.88.23,1.76,1.76,0,0,1,.68.57h0v-.7h1.53v.67ZM19,93.08a2,2,0,0,0,.38,1.23,1.34,1.34,0,0,0,1.12.5,1.42,1.42,0,0,0,1.05-.47A1.81,1.81,0,0,0,22,93.08a1.74,1.74,0,0,0-.44-1.24,1.42,1.42,0,0,0-1.05-.47,1.34,1.34,0,0,0-1.12.5A2,2,0,0,0,19,93.08Z" transform="translate(0)"/><path d="M27.91,90.79v.7a2.83,2.83,0,0,1,.76-.56,2,2,0,0,1,.88-.24,1.46,1.46,0,0,1,1,.36A1.19,1.19,0,0,1,31,92v2.69h.71v.66H29.33v-.66h.78V92.23a1,1,0,0,0-.17-.59.56.56,0,0,0-.47-.23,1.78,1.78,0,0,0-.8.19,4.15,4.15,0,0,0-.76.58v2.54h.76v.66H26.3v-.66h.76V91.46H26.3v-.67Z" transform="translate(0)"/><path d="M38.45,91.46v3.26h.77v.66H37.69v-.69h0a1.76,1.76,0,0,1-.68.57,1.91,1.91,0,0,1-.88.22,2.11,2.11,0,0,1-1.66-.68,2.48,2.48,0,0,1-.61-1.72,2.44,2.44,0,0,1,.61-1.71,2.15,2.15,0,0,1,1.66-.68,1.93,1.93,0,0,1,.88.23,1.76,1.76,0,0,1,.68.57h0v-.7h1.53v.67Zm-3.77,1.62a2,2,0,0,0,.38,1.23,1.34,1.34,0,0,0,1.12.5,1.39,1.39,0,0,0,1-.47,1.77,1.77,0,0,0,.45-1.26,1.7,1.7,0,0,0-.45-1.24,1.39,1.39,0,0,0-1-.47,1.34,1.34,0,0,0-1.12.5A2,2,0,0,0,34.68,93.08Z" transform="translate(0)"/><path d="M46.3,91.46v3.7c0,1.53-.8,2.29-2.39,2.29a2.66,2.66,0,0,1-1.37-.35,1.77,1.77,0,0,1-.84-1h1a.89.89,0,0,0,.49.52,1.76,1.76,0,0,0,.79.18,1.68,1.68,0,0,0,1.11-.36,1.5,1.5,0,0,0,.38-1.15v-.55h0c0,.15-.2.32-.51.5a2.23,2.23,0,0,1-2.68-.45,2.52,2.52,0,0,1-.6-1.67,2.54,2.54,0,0,1,.6-1.68,2.07,2.07,0,0,1,1.68-.73,1.91,1.91,0,0,1,1.58.76h0v-.66h1.58v.67ZM44,91.37a1.41,1.41,0,0,0-1.06.45,1.76,1.76,0,0,0-.44,1.28,1.9,1.9,0,0,0,.4,1.19,1.34,1.34,0,0,0,1.1.52,1.37,1.37,0,0,0,1-.48,1.67,1.67,0,0,0,.48-1.23,1.94,1.94,0,0,0-.38-1.27A1.33,1.33,0,0,0,44,91.37Z" transform="translate(0)"/><path d="M53.78,93.38h-4a1.54,1.54,0,0,0,1.52,1.43,2,2,0,0,0,.92-.21,1.39,1.39,0,0,0,.6-.55h.85a1.75,1.75,0,0,1-.87,1,3,3,0,0,1-1.51.39,2.29,2.29,0,0,1-1.67-.68,2.26,2.26,0,0,1-.69-1.69,2.32,2.32,0,0,1,.71-1.72,2.36,2.36,0,0,1,1.71-.7,2.22,2.22,0,0,1,1.74.77A2.8,2.8,0,0,1,53.78,93.38Zm-4-.67h3.13a1.22,1.22,0,0,0-.47-.94,1.66,1.66,0,0,0-1.1-.4,1.55,1.55,0,0,0-1,.39A1.4,1.4,0,0,0,49.79,92.71Z" transform="translate(0)"/><path d="M57.38,90.79v.65a3,3,0,0,1,.67-.52,1.68,1.68,0,0,1,.78-.23,1.3,1.3,0,0,1,.75.23,1.54,1.54,0,0,1,.53.6,3.47,3.47,0,0,1,.82-.63,1.86,1.86,0,0,1,.89-.2,1.09,1.09,0,0,1,1,.5,1.93,1.93,0,0,1,.34,1.15v2.38h.64v.66H61.58v-.66h.69V92.25c0-.56-.26-.84-.79-.84a1.22,1.22,0,0,0-.68.25,2,2,0,0,0-.54.53v2.53h.65v.66H58.73v-.66h.67V92.25c0-.56-.26-.84-.79-.84a1.22,1.22,0,0,0-.68.25,2.15,2.15,0,0,0-.55.53v2.53h.7v.66H55.8v-.66h.73V91.46H55.8v-.67Z" transform="translate(0)"/><path d="M70.82,93.38h-4a1.54,1.54,0,0,0,1.52,1.43,2,2,0,0,0,.92-.21,1.39,1.39,0,0,0,.6-.55h.85a1.75,1.75,0,0,1-.87,1,3,3,0,0,1-1.51.39,2.29,2.29,0,0,1-1.67-.68A2.26,2.26,0,0,1,66,93.11a2.29,2.29,0,0,1,.71-1.72,2.36,2.36,0,0,1,1.71-.7,2.22,2.22,0,0,1,1.74.77A2.8,2.8,0,0,1,70.82,93.38Zm-4-.67H70a1.22,1.22,0,0,0-.47-.94,1.66,1.66,0,0,0-1.1-.4,1.55,1.55,0,0,0-1,.39A1.4,1.4,0,0,0,66.83,92.71Z" transform="translate(0)"/><path d="M74.6,90.79v.7a2.68,2.68,0,0,1,.76-.56,2,2,0,0,1,.88-.24,1.46,1.46,0,0,1,1,.36,1.19,1.19,0,0,1,.41,1v2.69h.71v.66H76v-.66h.79V92.23a1,1,0,0,0-.17-.59.56.56,0,0,0-.47-.23,1.75,1.75,0,0,0-.8.19,3.84,3.84,0,0,0-.76.58v2.54h.76v.66H73v-.66h.77V91.46H73v-.67Z" transform="translate(0)"/><path d="M82.17,90.79h.88v.67h-.88v2.59a1.23,1.23,0,0,0,.08.57.47.47,0,0,0,.36.11l.43,0v.68a2.5,2.5,0,0,1-.74.1,1,1,0,0,1-.79-.23,1.64,1.64,0,0,1-.19-1V91.46h-.79v-.67h.79V89.2h.85Z" transform="translate(0)"/></svg>