<svg width="135" height="36" viewBox="0 0 135 36" xmlns="http://www.w3.org/2000/svg">
    <g fill="none" fill-rule="evenodd">
        <path fill="#0D2F49" d="m0 23.939 10.368-5.986L0 11.968z"/>
        <path fill="#08A0FF" d="m.003 23.94 20.73 11.97V23.94l-10.37-5.985z"/>
        <path fill="#73C9FF" d="M20.732 0 .002 11.97l10.361 5.985 10.37-5.985z"/>
        <g fill="#0D2F49">
            <path d="M99.88 20.026c0 2.065-1.961 3.502-5.672 3.502-2.649 0-4.803-.748-6.405-2.11l1.377-1.63c1.287 1.181 2.948 1.735 5.088 1.735 2.125 0 3.202-.404 3.202-1.272s-1.077-1.108-3.487-1.317c-2.992-.254-5.775-.913-5.775-3.157 0-2.185 2.334-3.382 5.566-3.382 2.29 0 4.265.568 5.597 1.6l-1.317 1.662c-1.152-.883-2.574-1.242-4.28-1.257-1.422-.015-3.157.24-3.157 1.197 0 .898 1.496.988 3.576 1.152 3.337.27 5.686.973 5.686 3.277M115.352 17.961c0-2.244-1.63-3.501-4.22-3.501-2.588 0-4.22 1.257-4.22 3.501 0 2.245 1.617 3.502 4.22 3.502 2.59 0 4.22-1.257 4.22-3.502m-10.878 0c0-3.501 2.573-5.566 6.658-5.566 4.085 0 6.66 2.065 6.66 5.566 0 3.502-2.575 5.567-6.66 5.567s-6.658-2.065-6.658-5.567M134.867 12.724v10.475h-2.095l-7.512-7.572v7.572h-2.32V12.724h2.545l7.063 7.183v-7.183zM57.295 19.04l2.165-3.751 2.166 3.75h-4.331zm3.13-6.316h-1.927L52.45 23.198h2.444l1.279-2.214h6.575l1.279 2.214h2.444l-6.046-10.474zM73.365 14.728h4.578c1.345 0 2.244.286 2.244 1.483s-.899 1.467-2.244 1.467h-4.578v-2.95zm7.06 4.572c1.372-.5 2.2-1.528 2.2-3.103 0-2.288-1.795-3.474-4.49-3.474H70.97v10.475h2.396v-3.543h4.823l2.046 3.543h2.443L80.424 19.3zM46.634 19.636l2.146 1.239c-.993 1.47-3.007 2.653-5.73 2.653-3.935 0-6.494-2.08-6.494-5.567 0-3.486 2.56-5.566 6.6-5.566 2.593 0 4.592 1.175 5.567 2.598l-2.089 1.205c-.748-1.167-1.952-1.738-3.509-1.738-2.484 0-4.13 1.197-4.13 3.501 0 2.305 1.646 3.502 4.13 3.502 1.557 0 2.731-.63 3.51-1.827"/>
        </g>
    </g>
</svg>
