<svg width="1463" height="600" viewBox="0 0 1463 600" fill="none" xmlns="http://www.w3.org/2000/svg">
<path d="M564.484 82.33L595 0L245.115 270.222C245.115 270.222 164.483 488.246 158.787 502.692L227.033 482.003L237.806 452.06L462.209 354.945L485.369 293.778L251.902 415.284L260.349 392.697L493.627 271.428L518.448 204.995L272.499 356.728L281.469 332.575L528.083 180.462L554.28 109.9L294.14 298.978L304.486 271.693L564.484 82.33Z" fill="#FFBD36"/>
<path d="M426.884 526.433L291.358 447.709L308.727 439.991L479.367 497.395L426.884 526.433Z" fill="#FFBD36"/>
<path d="M255.995 463.859L375.533 554.935L412.843 533.434L276.748 454.325L255.995 463.859Z" fill="#FFBD36"/>
<path d="M239.055 495.105L322.512 584.178L362.852 562.102L247.064 473.712L239.055 495.105Z" fill="#FFBD36"/>
<path d="M135.214 570.894L128.881 588.223L197.167 567.446L204.019 549.132L203.952 549.153L135.214 570.894Z" fill="#FFBD36"/>
<path d="M141.204 555.395L153.308 522.2L221.942 500.491L209.754 533.715L141.204 555.395Z" fill="#FFBD36"/>
<path d="M132.132 434.237L182.261 394.086L139.764 508.616L0 600L37.2976 489.562L144.63 399.323L132.132 434.237Z" fill="#FFBD36"/>
<path d="M1425 494.309C1432.1 494.309 1438.26 497.857 1440.5 501.592L1450.31 496.55C1445.36 486.465 1434.81 483.571 1424.63 483.571C1412.58 483.664 1399.32 489.174 1399.32 502.619C1399.32 517.279 1411.65 520.827 1425 522.415C1433.69 523.349 1440.13 525.869 1440.13 532.032C1440.13 539.129 1432.84 541.837 1425.09 541.837C1417.16 541.837 1409.59 538.662 1406.7 531.472L1396.43 536.794C1401.28 548.746 1411.56 552.855 1424.91 552.855C1439.47 552.855 1452.36 546.599 1452.36 532.032C1452.36 516.439 1439.66 512.89 1426.03 511.21C1418.19 510.276 1411.46 508.689 1411.46 502.993C1411.46 498.137 1415.85 494.309 1425 494.309Z" fill="#FFBD36"/>
<path d="M700.48 542.957C693.757 549.587 685.073 552.668 675.642 552.668C651.365 552.668 641.094 535.954 641.001 518.96C640.907 501.873 652.019 484.505 675.642 484.505C680.104 484.5 684.523 485.38 688.642 487.095C692.762 488.81 696.5 491.326 699.64 494.496L691.423 502.433C687.169 498.397 681.505 496.185 675.642 496.27C659.862 496.27 653.046 508.035 653.139 518.96C653.233 529.791 659.489 541.09 675.642 541.09C681.764 541.051 687.641 538.68 692.076 534.46L700.48 542.957Z" fill="#FFBD36"/>
<path fill-rule="evenodd" clip-rule="evenodd" d="M786.564 518.866C786.377 535.767 776.012 552.668 753.042 552.668C730.072 552.668 719.427 536.141 719.427 518.96C719.427 501.779 730.446 484.505 753.042 484.505C775.545 484.505 786.75 501.779 786.564 518.866ZM731.566 519.147C731.846 529.885 737.635 541.369 753.042 541.369C768.449 541.369 774.238 529.791 774.425 519.053C774.612 508.035 768.449 495.71 753.042 495.71C737.635 495.71 731.286 508.128 731.566 519.147Z" fill="#FFBD36"/>
<path d="M846.223 532.219L867.512 503.833V551.267H879.837V485.905H865.738L845.289 514.011L824.84 485.905H810.647V551.268H822.972V503.74L843.795 532.219H846.223Z" fill="#FFBD36"/>
<path d="M963.307 503.833L942.018 532.219H939.59L918.767 503.74V551.268H906.442V485.905H920.635L941.084 514.011L961.533 485.905H975.632V551.267H963.307V503.833Z" fill="#FFBD36"/>
<path fill-rule="evenodd" clip-rule="evenodd" d="M1032.86 552.668C1055.83 552.668 1066.2 535.767 1066.39 518.866C1066.57 501.779 1055.37 484.505 1032.86 484.505C1010.27 484.505 999.249 501.779 999.249 518.96C999.249 536.141 1009.89 552.668 1032.86 552.668ZM1032.86 541.369C1017.46 541.369 1011.67 529.885 1011.39 519.147C1011.11 508.128 1017.46 495.71 1032.86 495.71C1048.27 495.71 1054.43 508.035 1054.25 519.053C1054.06 529.791 1048.27 541.369 1032.86 541.369Z" fill="#FFBD36"/>
<path fill-rule="evenodd" clip-rule="evenodd" d="M1147.89 517.933C1148.17 534.46 1138.09 551.174 1115.21 551.174H1089.53V485.812H1115.21C1137.62 485.812 1147.61 501.779 1147.89 517.933ZM1101.77 539.316H1115.21C1130.06 539.316 1135.94 528.484 1135.66 517.84C1135.38 507.662 1129.41 497.484 1115.21 497.484H1101.77V539.316Z" fill="#FFBD36"/>
<path d="M1172.07 485.812V551.174H1184.3V485.812H1172.07Z" fill="#FFBD36"/>
<path d="M1230.7 497.017H1209.98V485.812H1263.76V497.017H1243.03V551.174H1230.7V497.017Z" fill="#FFBD36"/>
<path d="M1286.26 485.812V551.174H1298.49V485.812H1286.26Z" fill="#FFBD36"/>
<path d="M1373.75 551.174H1324.82V485.812H1373.75V497.764H1337.05V512.797H1372.44V524.282H1337.05V539.035H1373.75V551.174Z" fill="#FFBD36"/>
<path d="M1220.2 392.986H1255.23V161H1220.2V392.986ZM685.436 299.03H784.079V262.77H685.64V206.298H794.613V170.646H647.273V392.875H796.416V356.975H685.436V299.03ZM1384.11 224.889C1350.32 221.304 1316.37 238.135 1299.7 267.432C1282.89 296.954 1285.64 336.244 1306.37 362.98C1332.89 397.177 1385.05 407.484 1425.38 386.5C1436.67 380.626 1446.7 373.254 1454.58 362.746C1446.19 355.626 1438.33 348.951 1430.51 342.31C1407.04 367.21 1376.85 367.926 1358.49 360.489C1342.66 354.074 1332.47 342.644 1327.86 325.248H1460.79C1461.07 323.993 1461.32 323.16 1461.43 322.308C1467.08 277.321 1439.35 230.75 1384.11 224.889ZM1328.78 295.317C1329.84 276.131 1351.03 258.056 1373.25 257.239C1397.44 256.351 1419.3 273.148 1422.49 295.317H1328.78ZM958.57 251.175C957.44 250.317 956.359 249.395 955.334 248.414C928.436 217.953 880.346 217.461 851.253 241.766C821.656 266.493 814.321 299.06 822.935 335.23C830.076 365.214 848.942 386.03 879.135 394.152C908.519 402.057 934.777 395.641 956 372.693C956.869 372.024 957.806 371.448 958.795 370.974V392.879H994.077V228.933H958.57V251.175ZM907.705 362.18C878.55 362.131 856.703 340.073 856.77 310.755C856.838 281.49 878.818 259.581 908.031 259.659C936.774 259.736 958.522 281.692 958.63 310.742C958.739 340.03 936.761 362.23 907.705 362.18ZM1171.94 401.934C1162.17 397.833 1151.06 395.772 1140.41 395.167C1121.41 394.089 1102.31 394.925 1083.26 394.715C1076.28 394.638 1070.18 392.046 1067.22 385.234C1064.45 378.864 1066 372.809 1070.12 367.358C1072.35 364.395 1074.71 363.214 1078.78 364.577C1092.12 369.041 1105.78 369.646 1119.73 367.558C1172.43 359.668 1199.08 300.818 1169.46 256.917C1165.48 251.019 1167.05 246.497 1171.55 243.536C1175.83 240.715 1181.43 239.691 1186.59 238.488C1189.5 237.81 1192.69 238.365 1195.71 238.365V205.681C1168.95 201.875 1155.37 208.728 1142.11 232.411C1093.78 219.193 1061.79 226.667 1041.22 256.034C1032.9 267.809 1028.48 281.895 1028.59 296.311C1028.57 316.471 1035.97 333.812 1050.52 348.246C1048.46 349.908 1046.84 351.09 1045.37 352.429C1031.96 364.582 1026.88 379.846 1030.37 397.339C1033.8 414.535 1045.89 423.975 1062.2 428.185C1067.71 429.482 1073.36 430.12 1079.02 430.084C1097.4 430.315 1115.78 430.06 1134.16 430.216C1146.86 430.324 1154.38 433.518 1159.72 441.852H1200.87C1200.92 441.839 1200.97 441.826 1201.02 441.813C1197.64 423.353 1188.81 409.013 1171.94 401.934ZM1105.07 258.766C1127.16 258.72 1144.01 274.946 1144.11 296.366C1144.22 318.085 1127.22 334.684 1104.97 334.587C1082.86 334.49 1066.04 318.295 1065.87 296.941C1065.7 275.251 1082.58 258.813 1105.07 258.766Z" fill="black"/>
</svg>
