<?xml version="1.0" encoding="utf-8"?>
<!-- Generator: Adobe Illustrator 23.1.0, SVG Export Plug-In . SVG Version: 6.00 Build 0)  -->
<svg version="1.1" id="Layer_1" xmlns="http://www.w3.org/2000/svg" xmlns:xlink="http://www.w3.org/1999/xlink" x="0px" y="0px"
	 viewBox="0 0 2000 2000" style="enable-background:new 0 0 2000 2000;" xml:space="preserve">
<style type="text/css">
	.st0{fill:#002327;}
	.st1{fill:url(#SVGID_1_);}
	.st2{fill:url(#SVGID_2_);}
	.st3{fill:url(#SVGID_3_);}
	.st4{fill:url(#SVGID_4_);}
	.st5{fill:url(#SVGID_5_);}
	.st6{fill:url(#SVGID_6_);}
	.st7{fill:url(#SVGID_7_);}
	.st8{fill:url(#SVGID_8_);}
	.st9{fill:url(#SVGID_9_);}
</style>
<g>
	<g>
		<g>
			<path class="st0" d="M135.09,1619.56H36.25c2.76,21.38,20,35.63,44.13,35.63c14.25,0,26.2-4.83,35.16-14.71l12.18,14.25
				c-11.03,12.87-27.81,19.77-48.04,19.77c-39.3,0-65.5-25.97-65.5-62.29c0-36.09,25.97-62.06,61.14-62.06s60.22,25.28,60.22,62.75
				C135.55,1614.74,135.32,1617.5,135.09,1619.56z M36.25,1603.71h78.15c-2.3-20.46-17.7-34.94-39.07-34.94
				C54.18,1568.77,38.55,1583.02,36.25,1603.71z"/>
			<path class="st0" d="M223.81,1616.35l-25.28,23.44v33.33h-22.06v-170.55h22.06v109.41l66.43-60.68h26.66l-51.26,50.34
				l56.31,71.48h-27.12L223.81,1616.35z"/>
			<path class="st0" d="M328.39,1502.57h22.07v170.55h-22.07V1502.57z"/>
			<path class="st0" d="M398.95,1513.61c0-8.04,6.44-14.48,14.94-14.48c8.5,0,14.94,6.21,14.94,14.02c0,8.27-6.21,14.71-14.94,14.71
				C405.39,1527.86,398.95,1521.65,398.95,1513.61z M402.86,1551.3h22.07v121.82h-22.07V1551.3z"/>
			<path class="st0" d="M603.51,1612.21c0,37.46-25.97,62.29-61.6,62.29c-17.24,0-32.41-6.66-42.52-19.77v62.98h-22.06V1551.3h21.14
				v19.31c9.88-13.56,25.51-20.45,43.44-20.45C577.54,1550.15,603.51,1574.98,603.51,1612.21z M581.22,1612.21
				c0-25.74-17.7-42.75-41.14-42.75c-23.22,0-40.91,17.01-40.91,42.75c0,25.97,17.7,42.98,40.91,42.98
				C563.52,1655.19,581.22,1638.18,581.22,1612.21z"/>
			<path class="st0" d="M746.25,1673.12l-48.26-66.43l-47.58,66.43h-26.43l60.45-82.51l-56.77-78.38h26.2l45.05,61.83l44.59-61.83
				h25.05l-56.77,77.69l60.91,83.2H746.25z"/>
		</g>
		<g>
			<linearGradient id="SVGID_1_" gradientUnits="userSpaceOnUse" x1="878.7424" y1="1593.0145" x2="1963.007" y2="1587.7253">
				<stop  offset="0" style="stop-color:#08B3BD"/>
				<stop  offset="1" style="stop-color:#7AD817"/>
			</linearGradient>
			<path class="st1" d="M989.89,1673.12l-34.71-49.42c-3.22,0.23-6.67,0.46-10.11,0.46H905.3v48.96h-22.99v-160.89h62.75
				c41.83,0,67.12,21.15,67.12,56.08c0,24.82-12.87,42.75-35.4,50.8l38.15,54.01H989.89z M989.2,1568.31
				c0-22.98-15.4-36.09-44.82-36.09H905.3v72.4h39.07C973.8,1604.63,989.2,1591.3,989.2,1568.31z"/>
			<linearGradient id="SVGID_2_" gradientUnits="userSpaceOnUse" x1="878.842" y1="1613.4462" x2="1963.1066" y2="1608.1571">
				<stop  offset="0" style="stop-color:#08B3BD"/>
				<stop  offset="1" style="stop-color:#7AD817"/>
			</linearGradient>
			<path class="st2" d="M1166.18,1619.56h-98.83c2.76,21.38,20,35.63,44.13,35.63c14.25,0,26.2-4.83,35.17-14.71l12.18,14.25
				c-11.03,12.87-27.81,19.77-48.04,19.77c-39.3,0-65.51-25.97-65.51-62.29c0-36.09,25.97-62.06,61.14-62.06
				c35.17,0,60.22,25.28,60.22,62.75C1166.64,1614.74,1166.41,1617.5,1166.18,1619.56z M1067.34,1603.71h78.15
				c-2.3-20.46-17.7-34.94-39.07-34.94C1085.27,1568.77,1069.64,1583.02,1067.34,1603.71z"/>
			<linearGradient id="SVGID_3_" gradientUnits="userSpaceOnUse" x1="878.8453" y1="1614.1099" x2="1963.1099" y2="1608.8208">
				<stop  offset="0" style="stop-color:#08B3BD"/>
				<stop  offset="1" style="stop-color:#7AD817"/>
			</linearGradient>
			<path class="st3" d="M1192.15,1660.25l9.2-17.47c10.34,7.36,26.89,12.64,42.75,12.64c20.45,0,28.96-6.21,28.96-16.55
				c0-27.35-77-3.68-77-52.17c0-21.83,19.54-36.54,50.8-36.54c15.86,0,33.79,4.14,44.36,11.03l-9.42,17.47
				c-11.03-7.13-23.22-9.65-35.17-9.65c-19.31,0-28.73,7.12-28.73,16.78c0,28.73,77.23,5.29,77.23,52.64
				c0,22.06-20.23,36.08-52.64,36.08C1222.26,1674.5,1202.26,1668.29,1192.15,1660.25z"/>
			<linearGradient id="SVGID_4_" gradientUnits="userSpaceOnUse" x1="878.8486" y1="1614.7949" x2="1963.1132" y2="1609.5059">
				<stop  offset="0" style="stop-color:#08B3BD"/>
				<stop  offset="1" style="stop-color:#7AD817"/>
			</linearGradient>
			<path class="st4" d="M1442.68,1619.56h-98.83c2.76,21.38,20,35.63,44.13,35.63c14.25,0,26.2-4.83,35.17-14.71l12.18,14.25
				c-11.03,12.87-27.81,19.77-48.04,19.77c-39.3,0-65.51-25.97-65.51-62.29c0-36.09,25.97-62.06,61.14-62.06
				c35.17,0,60.22,25.28,60.22,62.75C1443.14,1614.74,1442.91,1617.5,1442.68,1619.56z M1343.85,1603.71h78.15
				c-2.3-20.46-17.7-34.94-39.07-34.94C1361.78,1568.77,1346.15,1583.02,1343.85,1603.71z"/>
			<linearGradient id="SVGID_5_" gradientUnits="userSpaceOnUse" x1="878.8519" y1="1615.4557" x2="1963.1163" y2="1610.1666">
				<stop  offset="0" style="stop-color:#08B3BD"/>
				<stop  offset="1" style="stop-color:#7AD817"/>
			</linearGradient>
			<path class="st5" d="M1577.14,1599.57v73.55h-20.92v-16.09c-7.36,11.03-20.92,17.47-39.99,17.47
				c-27.58,0-45.05-14.71-45.05-35.85c0-19.54,12.64-35.63,48.96-35.63h34.94v-4.37c0-18.62-10.8-29.42-32.64-29.42
				c-14.48,0-29.19,5.06-38.62,13.1l-9.2-16.55c12.64-10.11,30.8-15.63,50.34-15.63C1558.3,1550.15,1577.14,1566.24,1577.14,1599.57
				z M1555.08,1635.88v-17.01h-34.02c-21.83,0-28.04,8.5-28.04,18.85c0,12.18,10.11,19.77,26.89,19.77
				C1536.46,1657.49,1549.56,1649.9,1555.08,1635.88z"/>
			<linearGradient id="SVGID_6_" gradientUnits="userSpaceOnUse" x1="878.8521" y1="1615.5056" x2="1963.1166" y2="1610.2166">
				<stop  offset="0" style="stop-color:#08B3BD"/>
				<stop  offset="1" style="stop-color:#7AD817"/>
			</linearGradient>
			<path class="st6" d="M1693.9,1550.15v21.37c-1.84-0.23-3.45-0.23-5.06-0.23c-23.67,0-38.38,14.48-38.38,41.14v60.68h-22.07
				V1551.3h21.14v20.46C1657.36,1557.51,1672.53,1550.15,1693.9,1550.15z"/>
			<linearGradient id="SVGID_7_" gradientUnits="userSpaceOnUse" x1="878.8581" y1="1616.7373" x2="1963.1227" y2="1611.4481">
				<stop  offset="0" style="stop-color:#08B3BD"/>
				<stop  offset="1" style="stop-color:#7AD817"/>
			</linearGradient>
			<path class="st7" d="M1718.96,1612.21c0-36.32,26.89-62.06,64.36-62.06c21.83,0,39.99,8.96,49.65,25.97l-16.78,10.8
				c-7.81-11.95-19.77-17.47-33.1-17.47c-23.9,0-41.83,16.78-41.83,42.75c0,26.43,17.93,42.98,41.83,42.98
				c13.33,0,25.28-5.52,33.1-17.47l16.78,10.57c-9.65,17.01-27.81,26.2-49.65,26.2C1745.85,1674.5,1718.96,1648.53,1718.96,1612.21z
				"/>
			<linearGradient id="SVGID_8_" gradientUnits="userSpaceOnUse" x1="878.7421" y1="1592.965" x2="1963.0067" y2="1587.6759">
				<stop  offset="0" style="stop-color:#08B3BD"/>
				<stop  offset="1" style="stop-color:#7AD817"/>
			</linearGradient>
			<path class="st8" d="M1985.81,1603.02v70.1h-22.06v-67.57c0-23.9-11.95-35.63-32.87-35.63c-23.44,0-38.61,14.02-38.61,40.45
				v62.75h-22.07v-170.55h22.07v65.97c9.19-11.72,24.36-18.39,42.98-18.39C1964.9,1550.15,1985.81,1567.16,1985.81,1603.02z"/>
		</g>
	</g>
	<g>
		<path class="st0" d="M1063.07,393.07c16.7,16.7,27,39.74,27,65.16v691.2c0,50.91-41.25,92.16-92.16,92.16
			c-50.91,0-92.16-41.25-92.16-92.16v-691.2c0-50.91,41.25-92.16,92.16-92.16C1023.39,366.07,1046.43,376.37,1063.07,393.07z"/>
		<path class="st0" d="M1385.63,309.29c16.7,16.7,27,39.74,27,65.16v858.76c0,50.91-41.25,92.16-92.16,92.16
			s-92.16-41.25-92.16-92.16V374.45c0-50.91,41.25-92.16,92.16-92.16C1345.95,282.29,1368.99,292.59,1385.63,309.29z"/>
		<path class="st0" d="M443.08,491.51c16.7,16.7,27,39.74,27,65.16v494.31c0,50.91-41.25,92.16-92.16,92.16
			s-92.16-41.25-92.16-92.16V556.68c0-50.91,41.25-92.16,92.16-92.16C403.4,464.52,426.44,474.81,443.08,491.51z"/>
		<path class="st0" d="M1714.24,556.68v494.31c0,50.91-41.25,92.16-92.16,92.16s-92.16-41.25-92.16-92.16V556.68
			c0-50.91,41.25-92.16,92.16-92.16c25.48,0,48.52,10.3,65.16,27C1703.94,508.21,1714.24,531.25,1714.24,556.68z"/>
		<path class="st0" d="M753.08,529.22c16.7,16.7,27,39.74,27,65.16v418.91c0,50.91-41.25,92.16-92.16,92.16
			c-50.91,0-92.16-41.25-92.16-92.16V594.38c0-50.91,41.25-92.16,92.16-92.16C713.4,502.22,736.44,512.52,753.08,529.22z"/>
		<linearGradient id="SVGID_9_" gradientUnits="userSpaceOnUse" x1="338.1232" y1="878.5355" x2="1661.8772" y2="878.5355">
			<stop  offset="0" style="stop-color:#08B3BD"/>
			<stop  offset="1" style="stop-color:#7AD817"/>
		</linearGradient>
		<path class="st9" d="M1622.08,692.12c-21.98,0-39.8,17.82-39.8,39.8c0,7.18,1.93,13.91,5.26,19.73l-238.77,262.32
			c-7.22-7.31-17.23-11.85-28.32-11.85c-12.01,0-22.75,5.34-30.05,13.75l-255.63-118.25c1.86-4.6,2.91-9.62,2.91-14.89
			c0-21.98-17.82-39.8-39.8-39.8c-10.31,0-19.67,3.95-26.74,10.38l-244.02-131.7c0.34-2.11,0.57-4.25,0.57-6.45
			c0-21.98-17.82-39.8-39.8-39.8c-21.98,0-39.8,17.82-39.8,39.8c0,2.75,0.28,5.43,0.81,8.03l-242.8,151.02
			c-7.21-7.24-17.18-11.73-28.21-11.73c-21.98,0-39.8,17.82-39.8,39.8s17.82,39.8,39.8,39.8c21.98,0,39.8-17.82,39.8-39.8
			c0-3.39-0.47-6.67-1.27-9.82L658.5,741.9c7.28,8,17.74,13.06,29.41,13.06c12.25,0,23.2-5.55,30.5-14.25l241.45,130.31
			c-1.14,3.7-1.76,7.63-1.76,11.71c0,21.98,17.82,39.8,39.8,39.8c8.91,0,17.11-2.96,23.74-7.91l259.7,120.14
			c-0.42,2.33-0.68,4.71-0.68,7.16c0,21.98,17.82,39.8,39.8,39.8c21.98,0,39.8-17.82,39.8-39.8c0-2.9-0.33-5.72-0.92-8.44
			l243.03-267.01c5.81,3.32,12.53,5.25,19.7,5.25c21.98,0,39.8-17.82,39.8-39.8C1661.88,709.94,1644.06,692.12,1622.08,692.12z"/>
	</g>
</g>
</svg>
