<svg xmlns="http://www.w3.org/2000/svg" width="719" height="112" viewBox="0 0 719 112" fill="none"><g clip-path="url(#clip0_923_64081)"><path d="M29.138 12.1366L0.453383 68.1675C0.13193 68.7944 -0.023213 69.4932 0.00280876 70.1972C0.0288305 70.9012 0.235146 71.5867 0.601999 72.1881C0.968853 72.7895 1.48396 73.2866 2.09799 73.6319C2.71202 73.9772 3.40442 74.1591 4.10887 74.1601H32.5338C33.8438 74.1601 35.1284 73.7982 36.2457 73.1144C37.3631 72.4306 38.2699 71.4514 38.866 70.2849L67.7703 13.8345C68.0867 13.2055 68.2371 12.5062 68.2075 11.8027C68.1779 11.0993 67.9691 10.4151 67.601 9.81493C67.2329 9.21477 66.7177 8.71854 66.1041 8.37326C65.4905 8.02798 64.7989 7.84509 64.0949 7.84192H36.1094C34.668 7.86235 33.2591 8.27232 32.0318 9.0284C30.8045 9.78447 29.8045 10.8585 29.138 12.1366Z" fill="#4388E4"></path><path d="M114.912 0.0515137H86.9465C85.516 0.0733556 84.1184 0.484758 82.9041 1.24147C81.6899 1.99818 80.7049 3.07157 80.055 4.34622L68.3295 27.218C68.0132 27.847 67.8627 28.5463 67.8923 29.2498C67.922 29.9532 68.1307 30.6374 68.4988 31.2376C68.8669 31.8378 69.3822 32.334 69.9958 32.6793C70.6093 33.0246 71.3009 33.2075 72.005 33.2106H99.1315C100.786 33.1914 102.404 32.7219 103.811 31.8527C105.219 30.9834 106.363 29.7472 107.122 28.2767L118.508 6.02416C118.822 5.40254 118.974 4.7112 118.948 4.01495C118.923 3.3187 118.721 2.64034 118.362 2.04344C118.002 1.44654 117.497 0.950638 116.894 0.602241C116.291 0.253844 115.609 0.0643479 114.912 0.0515137Z" fill="#122F64"></path><path d="M58.961 45.2957L47.2355 68.1675C46.9192 68.7965 46.7687 69.4958 46.7983 70.1993C46.828 70.9027 47.0367 71.5869 47.4048 72.1871C47.7729 72.7873 48.2882 73.2835 48.9018 73.6288C49.5153 73.974 50.2069 74.1569 50.911 74.1601H78.0575C79.7142 74.1519 81.3366 73.687 82.7463 72.8166C84.1559 71.9461 85.2983 70.7038 86.0476 69.2262L97.4536 46.9936C97.7699 46.3646 97.9204 45.6653 97.8907 44.9618C97.8611 44.2584 97.6524 43.5742 97.2842 42.974C96.9161 42.3738 96.4009 41.8776 95.7873 41.5323C95.1737 41.1871 94.4822 41.0042 93.7781 41.001H66.0723C64.6044 40.9824 63.1605 41.3747 61.9039 42.1337C60.6472 42.8926 59.6279 43.9879 58.961 45.2957Z" fill="#4388E4"></path><path d="M146.813 61.2161C148.829 59.2313 150.26 56.7294 150.948 53.985C151.619 51.3696 152.021 48.6922 152.146 45.9948C152.306 42.9586 152.386 0.0515137 152.386 0.0515137H169.944C169.944 0.0515137 169.944 39.423 169.944 41.6003C170.036 45.9687 169.715 50.336 168.985 54.6442C168.23 58.6892 166.274 62.413 163.372 65.331C160.593 68.2292 157.23 70.5034 153.505 72.0028C150.431 73.3217 147.139 74.0599 143.797 74.1801L139.981 65.3909C142.499 64.4382 144.816 63.0221 146.813 61.2161Z" fill="#122F64"></path><path d="M186.763 8.36129C192.676 2.78151 200.726 -0.00172455 210.914 0.0115924C216.786 -0.145174 222.591 1.29056 227.713 4.16647C232.448 6.954 236.203 11.1413 238.46 16.1517C241.034 21.9804 242.237 28.3222 241.975 34.6888C242.084 41.479 240.571 48.1971 237.561 54.2846C235.015 59.2018 230.972 63.1822 226.015 65.6506C220.597 68.1981 214.661 69.4497 208.676 69.3061C202.744 69.4601 196.885 67.9592 191.757 64.9715C187.014 62.0648 183.271 57.7787 181.03 52.6866C178.489 46.8142 177.307 40.443 177.575 34.0496C177.774 22.5039 180.851 13.9144 186.763 8.36129ZM220.722 18.6086C219.722 16.8142 218.244 15.332 216.453 14.327C214.662 13.3219 212.626 12.8334 210.574 12.9157C208.459 12.8429 206.356 13.2698 204.437 14.1618C202.518 15.0538 200.836 16.3856 199.528 18.0493C196.758 21.4585 195.373 27.0249 195.373 34.7487C195.304 38.619 195.851 42.4756 196.991 46.1747C197.86 49.1455 199.549 51.8109 201.865 53.8652C204.099 55.7337 206.943 56.7148 209.855 56.6218C211.941 56.722 214.018 56.2752 215.878 55.3257C217.739 54.3761 219.319 52.9568 220.462 51.2084C222.919 47.6129 224.137 41.88 224.137 34.0496C224.408 28.6914 223.235 23.3588 220.741 18.6086H220.722Z" fill="#122F64"></path><path d="M266.885 0.0515137V28.1169H290.616V0.0515137H307.894V69.2661H290.616V40.5815H266.885V69.2661H249.466V0.0515137H266.885Z" fill="#122F64"></path><path d="M377.428 0.0515137V69.2661H360.01L337.577 32.2119L332.524 21.7048L334.661 39.3431V69.3061H318.98V0.0515137H335.16L358.771 38.0047L363.585 48.1122L361.727 30.494V0.0515137H377.428Z" fill="#122F64"></path><path d="M423.092 0.0515137H439.611C448.933 0.0515137 455.692 1.54302 459.886 4.52601C461.947 5.94821 463.612 7.87186 464.723 10.1156C465.834 12.3593 466.356 14.8491 466.238 17.3502C466.316 20.7408 465.384 24.078 463.562 26.9383C461.779 29.6707 459.022 31.6209 455.851 32.3916C458.415 32.6727 460.881 33.5334 463.062 34.9085C465.176 36.2347 466.911 38.0859 468.096 40.2819C469.337 42.6094 469.963 45.2154 469.914 47.8526C470.035 51.8145 469.12 55.7394 467.257 59.2385C465.169 62.6389 461.995 65.2357 458.248 66.6094C452.794 68.589 447.007 69.4912 441.209 69.2661H414.682V0.0515137H423.092ZM447.062 26.1194C448.036 25.2103 448.787 24.088 449.255 22.8403C449.722 21.5927 449.895 20.2537 449.759 18.9282C449.86 17.7935 449.636 16.6533 449.112 15.6415C448.589 14.6296 447.787 13.788 446.803 13.2153C444.002 11.9065 440.918 11.3226 437.834 11.5174H434.438C433.594 11.4482 432.745 11.5501 431.941 11.817V27.7973C434.151 28.1053 436.383 28.2256 438.613 28.1568C441.556 28.4009 444.499 27.6861 447.002 26.1194H447.062ZM449.319 55.8827C450.357 54.9021 451.156 53.6981 451.658 52.362C452.16 51.0259 452.351 49.593 452.216 48.1722C452.307 46.875 452.084 45.575 451.566 44.3823C451.048 43.1896 450.25 42.1394 449.24 41.3206C446.418 39.5613 443.105 38.756 439.791 39.0234H435.137C434.064 38.9648 432.988 39.059 431.941 39.3031V57.2809C432.994 57.7725 434.135 58.0444 435.297 58.0799C436.988 58.2397 438.686 58.3197 440.39 58.3197C443.539 58.5468 446.669 57.6866 449.259 55.8827H449.319Z" fill="#122F64"></path><path d="M475.108 0.0515137H492.287L492.167 37.6651C492.011 41.3692 492.429 45.0752 493.405 48.6516C493.999 50.8761 495.366 52.8165 497.261 54.1248C499.287 55.239 501.582 55.7713 503.892 55.6629C506.197 55.7682 508.484 55.2138 510.484 54.0649C512.372 52.7099 513.728 50.7391 514.32 48.4918C515.27 44.9646 515.694 41.3163 515.578 37.6651V0.0515137H532.677V40.1421C532.677 49.5438 530.353 56.7616 525.706 61.7954C521.058 66.8292 513.86 69.3394 504.112 69.3261C493.872 69.3261 486.441 66.7559 481.82 61.6156C477.199 56.4753 474.902 49.2242 474.928 39.8624L475.108 0.0515137Z" fill="#122F64"></path><path d="M599.414 69.266H580.298C579.924 68.7924 579.596 68.284 579.319 67.7479C579.039 67.1886 578.52 66.07 577.801 64.3721C577.082 62.6742 576.023 59.9575 575.024 56.9412C574.026 53.925 573.286 52.0473 572.607 50.4692C572.022 49.0204 571.213 47.6723 570.21 46.4742C569.813 45.9735 569.317 45.5594 568.754 45.2571C568.19 44.9548 567.571 44.7708 566.934 44.7163H559.463V69.266H542.185V0.0514134H568.972C573.254 0.0248599 577.512 0.699631 581.576 2.04895C585.312 3.30814 588.587 5.65174 590.985 8.78065C593.627 12.5325 594.935 17.0619 594.7 21.6448C594.7 31.3129 591.045 37.8315 583.734 41.2007C585.423 42.5832 586.822 44.2874 587.848 46.2145C589.027 48.3119 590.425 51.2083 592.063 54.9437C593.002 57.121 593.801 58.9388 594.44 60.2971C595.08 61.6554 595.799 62.9938 596.438 64.2922L599.414 69.266ZM559.463 32.7511C560.786 32.9482 562.122 33.0351 563.459 33.0108H567.933C569.356 33.1086 570.783 32.8745 572.1 32.3267C573.417 31.779 574.589 30.9328 575.524 29.8547C577.303 27.5285 578.208 24.6507 578.081 21.7247C578.081 15.1528 574.305 11.8569 566.794 11.8569C564.293 11.7955 561.799 12.1672 559.424 12.9555L559.463 32.7511Z" fill="#122F64"></path><path d="M662.777 0.0515137V69.2661H645.358L622.946 32.2119L617.892 21.7048L620.029 39.3431V69.3061H604.349V0.0515137H620.529L644.14 38.0047L648.954 48.1122L647.096 30.494V0.0515137H662.777Z" fill="#122F64"></path><path d="M674.022 51.5879C676.555 52.9116 679.237 53.9244 682.013 54.6042C685.306 55.5075 688.705 55.9709 692.12 55.9825C694.624 56.1559 697.132 55.6956 699.411 54.6441C700.158 54.1963 700.766 53.5505 701.167 52.7784C701.569 52.0062 701.75 51.1379 701.688 50.2695C701.717 48.9478 701.246 47.6639 700.37 46.674C699.217 45.4778 697.865 44.491 696.375 43.7576C694.63 42.8254 691.687 41.4005 687.546 39.4828C683.043 37.5271 679.001 34.6486 675.68 31.0333C672.715 27.5568 671.161 23.0949 671.326 18.5287C671.21 14.8941 672.291 11.3219 674.402 8.36123C676.595 5.46321 679.598 3.28047 683.031 2.08897C687.213 0.658172 691.617 -0.0181841 696.035 0.0914327C700.065 0.0286276 704.089 0.44435 708.021 1.3299C710.649 1.8883 713.189 2.80226 715.571 4.04655L712.895 16.9506C710.886 15.5675 708.647 14.5529 706.283 13.9543C703.46 13.0919 700.525 12.6477 697.573 12.636C695.089 12.4701 692.607 12.9955 690.402 14.1541C689.663 14.5687 689.05 15.1758 688.628 15.9108C688.206 16.6459 687.991 17.4815 688.005 18.3289C687.999 19.6176 688.428 20.8707 689.224 21.8845C690.263 23.0995 691.516 24.1148 692.919 24.8808C694.597 25.8397 696.914 26.9982 699.97 28.3566C703.668 29.9058 707.213 31.7984 710.557 34.0096C713.097 35.6828 715.233 37.9004 716.81 40.5016C718.322 43.2073 719.075 46.272 718.987 49.3706C719.129 53.1349 718.093 56.8498 716.024 59.9972C713.954 63.1447 710.954 65.5679 707.441 66.929C703.09 68.6797 698.427 69.5226 693.738 69.4059C690.675 69.4039 687.617 69.1702 684.589 68.7068C681.922 68.343 679.284 67.7822 676.699 67.0289C675.012 66.5644 673.388 65.8935 671.865 65.0313L674.022 51.5879Z" fill="#122F64"></path><path d="M152.985 110.955L148.231 102.245H144.416V110.955H140.421V89.2614H149.15C151.224 89.0768 153.286 89.7235 154.883 91.0592C155.483 91.6836 155.95 92.4234 156.256 93.2338C156.561 94.0441 156.699 94.9082 156.661 95.7734C156.68 97.0944 156.281 98.3877 155.522 99.4688C154.695 100.611 153.481 101.413 152.106 101.726L157.28 110.955H152.985ZM144.416 92.2577V99.3091H148.531C151.194 99.3091 152.526 98.1305 152.526 95.7734C152.526 93.4363 151.167 92.2577 148.531 92.2577H144.416Z" fill="#122F64"></path><path d="M174.598 107.859H184.946V110.955H170.643V89.2615H184.726V92.3577H174.598V98.3503H184.207V101.406H174.598V107.859Z" fill="#122F64"></path><path d="M205.4 111.474C203.28 111.554 201.186 110.975 199.408 109.816C197.885 108.771 196.803 107.198 196.372 105.402L199.727 103.923C200.071 105.159 200.765 106.269 201.725 107.119C202.819 107.964 204.18 108.389 205.56 108.318C206.633 108.357 207.694 108.086 208.616 107.539C209.019 107.298 209.348 106.95 209.567 106.534C209.785 106.119 209.885 105.651 209.855 105.182C209.889 104.771 209.83 104.358 209.681 103.974C209.532 103.59 209.298 103.245 208.996 102.965C208.164 102.378 207.206 101.994 206.199 101.846L203.163 101.207C199.388 100.428 197.49 98.3503 197.49 94.9744C197.46 94.1011 197.64 93.2333 198.016 92.4442C198.391 91.6551 198.951 90.9677 199.648 90.4401C201.321 89.2306 203.359 88.6314 205.42 88.7421C207.321 88.6756 209.202 89.1389 210.854 90.0805C211.586 90.513 212.222 91.0904 212.724 91.7774C213.225 92.4643 213.581 93.2463 213.77 94.0756L210.614 95.7135C210.368 94.5025 209.684 93.4249 208.692 92.6876C207.7 91.9503 206.471 91.6051 205.241 91.7185C204.23 91.6703 203.23 91.9429 202.384 92.4975C202.038 92.7381 201.758 93.0616 201.57 93.4386C201.381 93.8155 201.29 94.2337 201.305 94.6549C201.293 95.0232 201.356 95.3903 201.49 95.7337C201.624 96.0771 201.826 96.3897 202.085 96.6524C202.826 97.2552 203.716 97.6483 204.661 97.791L207.817 98.4701C209.453 98.7087 210.989 99.4007 212.252 100.468C212.78 101.021 213.187 101.678 213.448 102.396C213.71 103.115 213.819 103.88 213.77 104.643C213.796 105.555 213.614 106.461 213.236 107.292C212.859 108.122 212.297 108.856 211.593 109.437C209.852 110.858 207.645 111.584 205.4 111.474Z" fill="#122F64"></path><path d="M230.849 107.859H241.216V110.955H226.914V89.2615H240.897V92.3577H230.749V98.3503H240.377V101.406H230.749L230.849 107.859Z" fill="#122F64"></path><path d="M269.681 110.955L267.684 105.242H259.234L257.237 110.955H253.242L261.232 89.2615H265.507L273.497 110.955H269.681ZM260.273 102.245H266.685L264.148 94.9145C263.886 94.1566 263.672 93.3827 263.509 92.5974C263.346 93.3827 263.132 94.1566 262.87 94.9145L260.273 102.245Z" fill="#122F64"></path><path d="M298.885 110.955L294.111 102.245H290.296V110.955H286.301V89.2615H295.03C296.057 89.1689 297.092 89.2801 298.076 89.5886C299.059 89.8971 299.973 90.3969 300.763 91.0593C301.782 92.1932 302.4 93.6319 302.519 95.1523C302.638 96.6726 302.252 98.1898 301.422 99.4689C300.579 100.603 299.362 101.402 297.986 101.726L303.16 110.955H298.885ZM290.296 92.2578V99.3091H294.411C297.074 99.3091 298.406 98.1305 298.406 95.7734C298.406 93.4363 297.047 92.2578 294.411 92.2578H290.296Z" fill="#122F64"></path><path d="M324.574 111.474C323.159 111.565 321.742 111.33 320.433 110.786C319.124 110.242 317.957 109.404 317.023 108.338C315.199 105.987 314.278 103.06 314.426 100.088C314.263 97.0979 315.225 94.1548 317.123 91.8384C318.068 90.7995 319.232 89.9831 320.531 89.4477C321.829 88.9124 323.231 88.6714 324.633 88.7422C326.906 88.6017 329.15 89.3139 330.926 90.7397C332.516 92.2091 333.506 94.2162 333.702 96.3728L329.707 96.952C329.611 95.5703 329.039 94.2644 328.089 93.2566C327.623 92.8019 327.069 92.447 326.461 92.2135C325.853 91.9799 325.204 91.8727 324.554 91.8983C323.69 91.8648 322.831 92.0484 322.057 92.4323C321.282 92.8161 320.616 93.388 320.119 94.0956C319.078 95.8815 318.53 97.9114 318.53 99.9783C318.53 102.045 319.078 104.075 320.119 105.861C320.617 106.585 321.29 107.17 322.077 107.561C322.863 107.953 323.736 108.138 324.613 108.098C325.244 108.119 325.872 108.016 326.461 107.793C327.051 107.57 327.591 107.232 328.049 106.8C329.022 105.82 329.653 104.552 329.847 103.184L333.842 103.963C333.447 106.061 332.373 107.97 330.786 109.397C329.051 110.848 326.832 111.59 324.574 111.474Z" fill="#122F64"></path><path d="M364.584 89.2615V110.955H360.589V101.486H350.841V110.955H346.846V89.2615H350.841V98.3303H360.589V89.2615H364.584Z" fill="#122F64"></path><path d="M412.965 108.058C413.322 108.109 413.685 108.109 414.043 108.058V110.995C413.493 111.127 412.931 111.201 412.365 111.214C410.769 111.214 409.235 110.59 408.091 109.477C406.381 110.81 404.266 111.516 402.098 111.474C400.143 111.573 398.214 110.987 396.645 109.816C395.988 109.293 395.465 108.623 395.118 107.859C394.771 107.095 394.61 106.26 394.647 105.422C394.623 104.242 394.98 103.086 395.666 102.126C396.593 100.966 397.758 100.019 399.082 99.3491C397.599 97.8627 396.681 95.9062 396.485 93.8159C396.44 93.0751 396.558 92.3334 396.83 91.6432C397.103 90.9529 397.524 90.3308 398.063 89.8209C399.254 88.8176 400.782 88.3037 402.338 88.3826C403.886 88.303 405.411 88.7853 406.632 89.741C407.157 90.1941 407.571 90.7603 407.844 91.3971C408.118 92.0338 408.243 92.7243 408.21 93.4164C408.171 94.5682 407.817 95.6872 407.186 96.652C406.556 97.6168 405.674 98.3907 404.635 98.8897L403.696 99.4889L408.33 104.603C409.208 102.804 409.718 100.848 409.828 98.8497L412.845 99.429C412.72 102.094 411.893 104.678 410.448 106.92C411.109 107.609 412.01 108.016 412.965 108.058ZM398.303 105.182C398.295 105.656 398.402 106.125 398.614 106.549C398.827 106.973 399.137 107.34 399.521 107.619C400.385 108.296 401.461 108.643 402.557 108.598C403.868 108.605 405.141 108.152 406.153 107.319L400.76 101.327C399.978 101.758 399.297 102.35 398.762 103.065C398.41 103.712 398.25 104.447 398.303 105.182ZM402.298 90.9794C400.72 90.9794 399.921 91.8583 399.881 93.6361C399.884 94.2615 400.035 94.8773 400.32 95.4339C400.76 96.2369 401.289 96.9874 401.898 97.6712L402.657 97.2317C403.304 96.8831 403.841 96.363 404.211 95.7287C404.581 95.0944 404.769 94.3703 404.755 93.6361C404.786 93.2774 404.745 92.9161 404.636 92.5732C404.526 92.2303 404.349 91.9126 404.116 91.6386C403.879 91.4091 403.596 91.2318 403.287 91.1183C402.977 91.0047 402.647 90.9574 402.318 90.9794H402.298Z" fill="#122F64"></path><path d="M452.436 111.474C451.021 111.565 449.604 111.33 448.295 110.786C446.986 110.242 445.819 109.404 444.885 108.338C443.061 105.987 442.14 103.06 442.288 100.088C442.13 97.0953 443.1 94.1519 445.005 91.8384C445.945 90.7977 447.105 89.9798 448.4 89.4442C449.696 88.9086 451.095 88.6688 452.496 88.7422C454.768 88.6017 457.012 89.3139 458.788 90.7397C460.379 92.2091 461.368 94.2162 461.564 96.3728L457.569 96.952C457.473 95.5703 456.901 94.2644 455.951 93.2566C455.485 92.8019 454.931 92.447 454.323 92.2135C453.715 91.9799 453.066 91.8727 452.416 91.8983C451.552 91.8648 450.693 92.0484 449.919 92.4323C449.144 92.8161 448.478 93.388 447.981 94.0956C446.941 95.8815 446.392 97.9114 446.392 99.9783C446.392 102.045 446.941 104.075 447.981 105.861C448.479 106.585 449.152 107.17 449.939 107.561C450.725 107.953 451.598 108.138 452.476 108.098C453.106 108.119 453.734 108.016 454.323 107.793C454.913 107.57 455.453 107.232 455.911 106.8C456.884 105.82 457.515 104.552 457.709 103.184L461.704 103.963C461.309 106.061 460.235 107.97 458.648 109.397C456.913 110.848 454.694 111.59 452.436 111.474Z" fill="#122F64"></path><path d="M483.558 111.474C482.162 111.533 480.77 111.287 479.48 110.752C478.189 110.217 477.031 109.407 476.087 108.378C474.279 105.993 473.3 103.081 473.3 100.088C473.3 97.095 474.279 94.1838 476.087 91.7984C478.085 89.8403 480.77 88.7435 483.568 88.7435C486.365 88.7435 489.051 89.8403 491.048 91.7984C492.849 94.1909 493.822 97.1039 493.822 100.098C493.822 103.092 492.849 106.005 491.048 108.398C490.101 109.427 488.939 110.236 487.644 110.768C486.35 111.299 484.955 111.54 483.558 111.474ZM483.558 108.298C484.434 108.338 485.308 108.16 486.099 107.78C486.89 107.4 487.575 106.83 488.092 106.121C489.144 104.299 489.698 102.232 489.698 100.128C489.698 98.0243 489.144 95.9575 488.092 94.1355C487.575 93.4263 486.89 92.8563 486.099 92.4763C485.308 92.0964 484.434 91.9184 483.558 91.9582C482.678 91.9204 481.803 92.0991 481.009 92.4788C480.215 92.8584 479.526 93.4273 479.003 94.1355C477.831 95.9058 477.263 98.0083 477.385 100.128C477.274 102.247 477.841 104.346 479.003 106.121C479.527 106.828 480.216 107.396 481.01 107.775C481.804 108.155 482.678 108.334 483.558 108.298Z" fill="#122F64"></path><path d="M507.108 110.955V89.2615H511.623L519.793 103.464C520.321 104.348 520.768 105.277 521.131 106.241C521.131 105.182 521.131 104.243 521.131 103.444V89.2615H524.707V110.955H520.272L512.002 96.6723C511.511 95.793 511.071 94.886 510.684 93.9557C510.684 94.495 510.684 95.4539 510.684 96.8122V110.935L507.108 110.955Z" fill="#122F64"></path><path d="M546.42 111.474C544.299 111.554 542.205 110.975 540.427 109.816C538.905 108.766 537.818 107.196 537.371 105.402L540.747 103.923C541.083 105.162 541.778 106.274 542.744 107.12C543.833 107.961 545.186 108.386 546.56 108.318C547.638 108.356 548.706 108.086 549.636 107.539C550.036 107.295 550.362 106.946 550.58 106.531C550.798 106.116 550.9 105.65 550.874 105.182C550.906 104.77 550.844 104.356 550.691 103.972C550.539 103.587 550.301 103.243 549.996 102.965C549.164 102.378 548.206 101.995 547.199 101.846L544.183 101.207C540.387 100.421 538.49 98.3437 538.49 94.9745C538.46 94.1011 538.64 93.2334 539.015 92.4442C539.391 91.6551 539.95 90.9678 540.647 90.4401C542.328 89.2307 544.372 88.6317 546.44 88.7422C548.334 88.6772 550.208 89.1406 551.853 90.0806C552.586 90.5131 553.222 91.0905 553.723 91.7774C554.225 92.4644 554.581 93.2464 554.77 94.0756L551.633 95.7136C551.384 94.5047 550.698 93.4297 549.707 92.6931C548.717 91.9565 547.49 91.6097 546.26 91.7185C545.25 91.6703 544.25 91.943 543.404 92.4976C543.058 92.7381 542.778 93.0617 542.589 93.4386C542.401 93.8156 542.31 94.2338 542.325 94.6549C542.313 95.0233 542.375 95.3904 542.509 95.7338C542.643 96.0772 542.845 96.3898 543.104 96.6525C543.846 97.2552 544.736 97.6484 545.681 97.791L548.817 98.4702C550.453 98.7088 551.989 99.4008 553.252 100.468C553.779 101.021 554.187 101.678 554.448 102.396C554.709 103.115 554.819 103.88 554.77 104.643C554.798 105.553 554.619 106.458 554.245 107.289C553.871 108.12 553.313 108.854 552.612 109.437C550.871 110.858 548.665 111.584 546.42 111.474Z" fill="#122F64"></path><path d="M567.454 89.2615H571.449V103.244C571.378 104.58 571.829 105.891 572.707 106.9C573.164 107.354 573.711 107.707 574.314 107.934C574.916 108.161 575.56 108.258 576.203 108.218C576.855 108.259 577.508 108.163 578.121 107.936C578.733 107.709 579.291 107.356 579.759 106.9C580.637 105.891 581.088 104.58 581.017 103.244V89.2615H585.012V103.364C585.074 104.47 584.9 105.577 584.5 106.61C584.101 107.644 583.485 108.58 582.695 109.357C580.851 110.768 578.595 111.532 576.273 111.532C573.951 111.532 571.695 110.768 569.851 109.357C569.07 108.575 568.463 107.637 568.071 106.604C567.678 105.571 567.509 104.467 567.574 103.364L567.454 89.2615Z" fill="#122F64"></path><path d="M599.415 110.955V89.2615H603.41V107.719H612.878V110.955H599.415Z" fill="#122F64"></path><path d="M637.368 89.2615V92.4775H630.796V110.955H626.801V92.4775H620.229V89.2615H637.368Z" fill="#122F64"></path><path d="M653.827 110.955H649.832V89.2615H653.827V110.955Z" fill="#122F64"></path><path d="M668.669 110.955V89.2615H673.183L681.313 103.464C681.847 104.348 682.301 105.277 682.672 106.241C682.672 105.182 682.672 104.243 682.672 103.444V89.2615H686.247V110.955H681.813L673.543 96.6723C673.064 95.7893 672.631 94.8826 672.244 93.9557C672.244 94.495 672.244 95.4539 672.244 96.8122V110.935L668.669 110.955Z" fill="#122F64"></path><path d="M709.139 111.474C707.812 111.534 706.489 111.283 705.275 110.742C704.062 110.201 702.991 109.385 702.148 108.358C700.341 106.014 699.428 103.104 699.571 100.148C699.425 97.1405 700.416 94.1882 702.347 91.8783C703.294 90.8268 704.462 89.9997 705.769 89.4571C707.075 88.9146 708.486 88.6703 709.898 88.7421C711.182 88.7234 712.459 88.9261 713.674 89.3414C714.671 89.6748 715.584 90.22 716.35 90.9394C716.978 91.5635 717.51 92.277 717.928 93.0568C718.318 93.7668 718.588 94.5362 718.727 95.334L714.732 96.0131C714.548 94.9032 714.024 93.8776 713.234 93.0768C712.768 92.6479 712.22 92.3186 711.622 92.1091C711.024 91.8996 710.39 91.8142 709.758 91.8583C708.868 91.8243 707.984 92.0129 707.185 92.407C706.386 92.8012 705.699 93.3884 705.184 94.1155C704 95.8822 703.418 97.9841 703.526 100.108C703.409 102.225 703.969 104.323 705.124 106.101C705.652 106.838 706.356 107.432 707.173 107.826C707.99 108.22 708.892 108.403 709.798 108.358C710.73 108.377 711.653 108.179 712.495 107.779C713.194 107.446 713.788 106.927 714.213 106.28C714.582 105.727 714.865 105.121 715.052 104.483C715.226 103.927 715.313 103.347 715.311 102.765V102.365H709.459V99.349H718.887V111.015H716.091L715.751 107.679C715.232 108.867 714.342 109.856 713.214 110.495C711.963 111.169 710.559 111.506 709.139 111.474Z" fill="#122F64"></path></g><defs><clipPath id="clip0_923_64081"><rect width="719" height="111.532" fill="white"></rect></clipPath></defs></svg>