<?xml version="1.0" encoding="UTF-8"?>
<svg xmlns="http://www.w3.org/2000/svg" width="97" height="82.155" viewBox="0 0 97 82.155">
  <g transform="translate(-976 -464)">
    <rect width="97" height="80" transform="translate(976 465)" fill="none"></rect>
    <g transform="translate(464.6 196.1)">
      <g transform="translate(512.4 334.206)">
        <path d="M519.454,546.216a2.107,2.107,0,0,0-2.247-1.739,1.752,1.752,0,0,0-1.933,1.57c0,.677.435,1.208,1.329,1.4l1.715.334c2.247.435,3.431,1.884,3.431,3.623,0,1.885-1.57,3.816-4.445,3.816-3.261,0-4.71-2.1-4.9-3.865l2.222-.58a2.49,2.49,0,0,0,2.7,2.322c1.281,0,2.006-.652,2.006-1.521,0-.7-.532-1.281-1.5-1.449l-1.715-.334a3.6,3.6,0,0,1-3.232-3.526,4.078,4.078,0,0,1,4.3-3.865c3,0,4.131,1.812,4.42,3.189Z" transform="translate(-512.4 -542.397)" fill="#1a1a47"></path>
        <path d="M561.729,566.381a2.675,2.675,0,0,1-2.367,1.136,3.162,3.162,0,0,1-3.261-3.382v-5.411h2.319v4.927a1.512,1.512,0,0,0,1.57,1.715,1.554,1.554,0,0,0,1.618-1.691V558.7h2.319v7a10.957,10.957,0,0,0,.1,1.546h-2.2A3.3,3.3,0,0,1,561.729,566.381Z" transform="translate(-545.545 -554.759)" fill="#1a1a47"></path>
        <path d="M597.3,570.154V558.294h2.247v1.039a3.009,3.009,0,0,1,2.633-1.232c2.512,0,3.938,1.908,3.938,4.445,0,2.585-1.618,4.493-4.035,4.493A2.965,2.965,0,0,1,599.618,566v4.155Zm4.42-9.976a2.422,2.422,0,1,0,2.125,2.392,2.16,2.16,0,0,0-2.125-2.392Z" transform="translate(-576.791 -554.305)" fill="#1a1a47"></path>
        <path d="M645.511,564.253a3.847,3.847,0,0,1-3.889,2.705,4.339,4.339,0,0,1-4.42-4.57,4.278,4.278,0,0,1,4.2-4.493c2.632,0,4.227,1.691,4.227,4.42,0,.334-.024.677-.024.7H639.5a2.088,2.088,0,0,0,2.15,1.957,1.9,1.9,0,0,0,1.957-1.3Zm-2.15-2.8a1.713,1.713,0,0,0-1.908-1.691,1.831,1.831,0,0,0-1.908,1.691Z" transform="translate(-607.053 -554.154)" fill="#1a1a47"></path>
        <path d="M683.417,561.041a3.842,3.842,0,0,0-.7-.073c-1.184,0-2.2.58-2.2,2.415V567.3H678.2v-8.552h2.247v1.281a2.546,2.546,0,0,1,2.434-1.325c.193,0,.362.024.531.024Z" transform="translate(-638.149 -554.76)" fill="#1a1a47"></path>
        <path d="M717,555.62v-8.648l-3.551,8.648h-2.006l-3.551-8.575v8.575H705.6V543.3h3.164l3.7,8.89,3.623-8.89h3.261v12.32Z" transform="translate(-658.931 -543.079)" fill="#1a1a47"></path>
        <path d="M772.185,561.79l2.1-.314c.483-.072.652-.314.652-.6,0-.6-.459-1.115-1.449-1.115a1.531,1.531,0,0,0-1.643,1.4l-2.053-.435a3.424,3.424,0,0,1,3.671-2.826c2.7,0,3.72,1.521,3.72,3.261v4.211a10.107,10.107,0,0,0,.1,1.353h-2.125a6.028,6.028,0,0,1-.1-1.014,2.869,2.869,0,0,1-2.512,1.281,2.608,2.608,0,1,1-.362-5.194Zm2.754,1.449v-.387l-1.933.29c-.58.1-1.063.41-1.063,1.087a1,1,0,0,0,1.115.991,1.74,1.74,0,0,0,1.881-1.979Z" transform="translate(-707.47 -554.155)" fill="#1a1a47"></path>
        <path d="M808.792,562.27a2.207,2.207,0,0,0,2.2,2.415,1.937,1.937,0,0,0,1.956-1.449l2.03.676a3.957,3.957,0,0,1-3.986,2.874,4.543,4.543,0,0,1-.072-9.082,3.924,3.924,0,0,1,4.012,2.874l-2.077.7a1.887,1.887,0,0,0-1.885-1.449,2.238,2.238,0,0,0-2.176,2.439Z" transform="translate(-735.453 -554.001)" fill="#1a1a47"></path>
        <path d="M852.417,561.041a3.852,3.852,0,0,0-.7-.073c-1.184,0-2.2.58-2.2,2.415V567.3H847.2v-8.552h2.247v1.281a2.546,2.546,0,0,1,2.434-1.325c.193,0,.362.024.532.024Z" transform="translate(-766.325 -554.76)" fill="#1a1a47"></path>
        <path d="M879.987,562.342a4.494,4.494,0,1,1-4.493-4.542,4.394,4.394,0,0,1,4.493,4.542Zm-2.295,0a2.2,2.2,0,1,0-.546,1.7,2.189,2.189,0,0,0,.546-1.7Z" transform="translate(-784.375 -554.077)" fill="#1a1a47"></path>
      </g>
      <g transform="translate(545.228 267.9)">
        <path d="M700.115,323.991V284.664l-16.136,39.327h-9.107L658.735,285v38.988H648.3V267.9h14.4l16.837,40.486L695.985,267.9h14.88v56.091Z" transform="translate(-648.3 -267.9)" fill="#1a1a47"></path>
      </g>
      <g transform="translate(528.706 287.225)">
        <path d="M590.65,347.9v36.766H579.9V347.9" transform="translate(-579.9 -347.9)" fill="#003db0"></path>
      </g>
      <g transform="translate(513.197 306.55)">
        <path d="M526.45,427.9v17.44H515.7V427.9" transform="translate(-515.7 -427.9)" fill="#1f70ff"></path>
      </g>
    </g>
  </g>
</svg>
