<?xml version="1.0" encoding="utf-8"?>
<!-- Generator: Adobe Illustrator 27.0.0, SVG Export Plug-In . SVG Version: 6.00 Build 0)  -->
<svg version="1.1" id="Layer_1" xmlns="http://www.w3.org/2000/svg" xmlns:xlink="http://www.w3.org/1999/xlink" x="0px" y="0px"
	 width="200px" height="30px" viewBox="0 0 200 30" style="enable-background:new 0 0 200 30;" xml:space="preserve">
<style type="text/css">
	.st0{fill:#FFFFFF;}
</style>
<path class="st0" d="M38.1,29.5c1.8,0,3.3-0.9,4.1-2.4l-0.9-0.5c-0.6,1.2-1.8,1.8-3.2,1.8c-2.2,0-3.6-1.4-3.6-3.3s1.4-3.3,3.5-3.3
	c1.4,0,2.4,0.6,3.1,1.8L42,23c-0.8-1.4-2.2-2.2-4.1-2.2c-2.8,0-4.7,1.9-4.7,4.5C33.3,27.6,35.3,29.5,38.1,29.5z M52.4,29.4l-4.1-8.7
	h-1.4l-4.1,8.7h1.3l0.9-1.9h5.4l0.9,1.9C51.3,29.4,52.4,29.4,52.4,29.4z M47.6,21.8L47.6,21.8l2.2,4.6h-4.4L47.6,21.8z M55.1,29.4
	v-4.1h3.6c1.7,0,2.7-1,2.7-2.3s-0.9-2.3-2.7-2.3H54v8.7C54,29.4,55.1,29.4,55.1,29.4z M55.1,21.8h3.6c1,0,1.4,0.5,1.4,1.3
	c0,0.6-0.4,1.3-1.4,1.3h-3.6V21.8z M64.2,29.4v-8.7H63v8.7C63.1,29.4,64.2,29.4,64.2,29.4z M70.8,29.4v-7.6h3.6v-1h-8.5v1h3.7v7.6
	H70.8z M83.1,29.4L79,20.6h-1.4l-4.1,8.7h1.3l0.9-1.9H81l0.9,1.9C81.9,29.4,83.1,29.4,83.1,29.4z M78.2,21.8L78.2,21.8l2.2,4.6H76
	L78.2,21.8z M91.4,29.4v-1.2h-5.5v-7.6h-1.3v8.7C84.6,29.4,91.4,29.4,91.4,29.4z M97.6,29.4v-7.3h0.1l3.2,5.3h1l3.2-5.3h0.1v7.3h1.2
	v-8.7h-1.7l-3.3,5.3h-0.1L98,20.7h-1.7v8.7C96.3,29.4,97.6,29.4,97.6,29.4z M117.7,29.4l-4.1-8.7h-1.4l-4.1,8.7h1.3l0.9-1.9h5.4
	l0.9,1.9C116.5,29.4,117.7,29.4,117.7,29.4z M112.8,21.8L112.8,21.8l2.2,4.6h-4.4L112.8,21.8z M120.4,29.4v-7.2h0.1l5.5,7.2h1.5
	v-8.7h-1.2v7.2h-0.1l-5.5-7.2h-1.5v8.7C119.2,29.4,120.4,29.4,120.4,29.4z M138.6,29.4l-4.1-8.7h-1.4l-4.1,8.7h1.3l0.9-1.9h5.4
	l0.9,1.9C137.4,29.4,138.6,29.4,138.6,29.4z M133.7,21.8L133.7,21.8l2.2,4.6h-4.4L133.7,21.8z M144,29.5c1.8,0,3.1-0.5,4.1-1.3v-3.8
	h-4v1h2.8v2.3c-0.8,0.5-1.7,0.9-2.9,0.9c-2.3,0-3.7-1.4-3.7-3.3s1.4-3.3,3.6-3.3c1.3,0,2.4,0.5,3.1,1.4l0.9-0.5
	c-0.9-1.4-2.4-1.9-4-1.9c-2.7,0-4.7,1.8-4.7,4.5C139.1,27.6,141,29.5,144,29.5z M157.7,29.4v-1.2h-5.9V25h5.4v-1h-5.4v-2.2h5.8v-1
	h-6.9v8.7h7.1v-0.1H157.7z M160.9,29.4v-7.3h0.1l3.2,5.3h1l3.2-5.3h0.1v7.3h1.2v-8.7H168l-3.3,5.3h-0.1l-3.3-5.3h-1.7v8.7
	C159.6,29.4,160.9,29.4,160.9,29.4z M179.5,29.4v-1.2h-5.9V25h5.4v-1h-5.4v-2.2h5.8v-1h-6.9v8.7h7.1v-0.1H179.5z M182.8,29.4v-7.2
	h0.1l5.5,7.2h1.5v-8.7h-1.2v7.2h-0.1l-5.5-7.2h-1.5v8.7C181.7,29.4,182.8,29.4,182.8,29.4z M196.3,29.4v-7.6h3.6v-1h-8.5v1h3.7v7.6
	H196.3z M50.6,15.1L43.3,0.3h-2.6l-7.4,14.9h2.2l1.7-3.2h9.6l1.5,3.2L50.6,15.1C50.6,15.2,50.6,15.1,50.6,15.1z M41.9,2.3L41.9,2.3
	l3.9,7.8H38L41.9,2.3z M55.4,15.1V2.8h0.1l9.9,12.3h2.7V0.3H66v12.3h-0.1L56,0.3h-2.7v14.9L55.4,15.1C55.4,15.2,55.4,15.1,55.4,15.1
	z M79.2,15.1c5.4,0,8.7-2.8,8.7-7.4s-3.3-7.4-8.7-7.4h-6.5v14.9L79.2,15.1L79.2,15.1z M74.7,2.1h4.4c4.1,0,6.7,2.2,6.7,5.6
	s-2.6,5.6-6.7,5.6h-4.4V2.1z M101.4,7.8c2.2-0.5,3.3-1.9,3.3-3.7c0-2.3-1.7-4-4.9-4h-8.6V15h2.1V8.1h5.8l3.5,7.1h2.3L101.4,7.8z
	 M99.9,2.1c1.8,0,2.7,1,2.7,2.1c0,1.2-0.9,2.1-2.7,2.1h-6.4V2.1H99.9z M115.5,15.4c5.1,0,8.7-3.3,8.7-7.7S120.6,0,115.5,0
	s-8.7,3.3-8.7,7.7S110.4,15.4,115.5,15.4z M115.5,13.5c-4,0-6.5-2.4-6.5-5.8s2.6-5.8,6.5-5.8s6.5,2.4,6.5,5.8S119.5,13.5,115.5,13.5
	z M129.9,15.1V2.6h0.1l5.9,9h1.9l5.9-9h0.1V15h2.1V0.3h-3.1l-6,9.1h-0.1l-5.9-9.1h-3.1v14.9L129.9,15.1L129.9,15.1z M163.2,15.1
	v-1.8h-10.6V7.7h9.6V5.9h-9.6V2.1H163V0.3h-12.6v14.9L163.2,15.1L163.2,15.1z M173.3,15.1c5.4,0,8.7-2.8,8.7-7.4s-3.3-7.4-8.7-7.4
	h-6.5v14.9L173.3,15.1L173.3,15.1z M168.8,2.1h4.4c4.1,0,6.7,2.2,6.7,5.6s-2.6,5.6-6.7,5.6h-4.4V2.1z M200,15.1l-7.4-14.9H190
	l-7.4,14.9h2.2l1.5-3.2h9.6l1.5,3.2H200z M191.2,2.3h0.1l3.8,7.8h-7.8L191.2,2.3z M11.8,0c0.4,0.2,0.8,0.4,1.2,0.5
	c0.2,0.1,0.3,0.2,0.3,0.4c0.1,0.4,0.1,0.8,0.2,1.3c0.1,0,0.1-0.1,0.2-0.1c0,0.2,0,0.4,0,0.6c0,0.2-0.1,0.3-0.1,0.4c0,0,0,0.1,0,0.1
	c-0.4,0-0.2,0.4-0.3,0.6c-0.1,0.1-0.1,0.3-0.2,0.4c-0.1,0.1-0.3,0.2-0.4,0.4c-0.1,0.1-0.1,0.2-0.1,0.3c0,0.3-0.2,0.6,0.2,0.8
	c0.3,0.1,0.5,0.3,0.8,0.3c0.3-0.1,0.6,0,0.9,0.2c1.3,1,2.6,1.9,3.9,2.9c0.2,0.2,0.2,0.5,0,0.7c-1,0.9-1.9,1.8-2.9,2.7
	c-0.3,0.3-0.4,0.6-0.6,0.9c-0.1,0.1-0.1,0.2-0.1,0.3c-0.1,0-0.1-0.1-0.2-0.1c0.2,0.5,0.3,0.9,0.7,1.3c0.5,0.5,1.1,1,1.6,1.5
	c0.1,0.1,0.2,0.2,0.2,0.4c0,0.3,0.1,0.6,0,0.9c-0.1,0.2-0.4,0.3-0.7,0.5c-0.1,0.1-0.3,0.2-0.5,0.3c0-0.2,0-0.4,0.1-0.6
	c0-0.1,0-0.2-0.2-0.3c-0.4-0.2-0.8-0.2-1.3-0.1c-0.1,0-0.1,0-0.2,0.1c0,0.4,0.1,0.8,0.1,1.3c0,0.5,0,0.9,0,1.4c0,0.5,0.1,1,0.1,1.5
	c0.1,1.1,0.2,2.2,0.3,3.3c0,0.2,0.1,0.3,0.3,0.5c0.3,0.2,0.6,0.4,0.9,0.7c0.1,0.1,0.2,0.1,0.3,0.1c2.8,0.7,5.2,1.9,7.4,3.8
	c0,0,0.1,0.1,0.2,0.1C15.7,27,7.9,27,0,29.9c0,0,0,0,0-0.1c0.8-0.6,1.6-1.1,2.4-1.6c1.5-0.9,3.2-1.6,4.9-2.1c0.2,0,0.3-0.1,0.5-0.3
	c0.2-0.2,0.5-0.4,0.7-0.5c0.2-0.1,0.3-0.3,0.3-0.5c0.1-1.1,0.2-2.2,0.3-3.3c0.1-0.8,0.1-1.7,0.1-2.5c-0.1,0-0.1,0-0.1,0
	c-1,0.3-2.1,0.2-3.1,0.3c-0.3,0-0.6,0-0.8-0.2c-0.4-0.2-0.9-0.5-1.3-0.7c-0.4-0.2-0.6-0.4-0.6-0.8c0.3,0.1,0.5,0.2,0.8,0.2
	c0,0,0,0,0-0.1c-0.2-0.2-0.4-0.5-0.7-0.6C3,16.9,3,16.6,3,16.2c0.2,0.1,0.5,0.2,0.6,0.3c0.5,0.3,1,0.3,1.5,0.3c0.6,0,1-0.2,1.5-0.5
	C7.4,16,8,15.4,8.4,14.6c0.2-0.4,0.5-0.8,0.7-1.1c-0.2-0.2-0.4-0.4-0.6-0.6c-0.8-0.8-1.7-1.7-2.5-2.5C5.8,10.2,5.6,10,5.4,9.8
	C5.2,9.6,5.2,9.4,5.2,9.2C5.2,9.1,5.3,9,5.3,9c1.2-1,2.5-2,3.7-3c0.2-0.2,0.4-0.1,0.7-0.1c0.5,0.1,0.8-0.2,1.2-0.4c0,0,0,0,0.1,0
	c0.1-0.1-0.1-0.8-0.2-0.9c-0.3-0.3-0.6-0.3-1.1-0.2C9.2,4.5,8.7,4.5,8.3,4.7c-0.5,0.1-0.9,0-1.3-0.1C6.4,4.4,5.8,4.3,5.2,4.2
	c-0.1,0-0.3,0-0.4,0C4.4,4.4,3.9,4.7,3.4,4.9c0.3-0.8,1.1-1.1,1.6-1.6C4.4,3.6,3.7,4,3,4.3c0.2-0.4,0.4-0.7,0.6-1
	c0.1-0.1,0.2-0.1,0.3-0.2c0.6-0.3,1.2-0.6,1.8-0.9c-0.5,0.2-1,0.3-1.5,0.5C4.3,2.5,4.5,2.2,4.6,2c0-0.1,0.1-0.1,0.2-0.1
	C5,1.8,5.2,1.8,5.4,1.7C6,1.4,6.7,1.4,7.3,1.5c0.2,0,0.4,0,0.7-0.1C8.9,1,9.8,0.6,10.7,0.2c0.2-0.1,0.5-0.1,0.8-0.2
	c0.1,0,0.1,0,0.2-0.1C11.7,0,11.7,0,11.8,0z M9.7,25.7c0.1,0,0.2,0,0.3,0c0.4,0,0.8-0.1,1.2-0.1c0.8,0,1.6,0.1,2.3,0.1
	c0.1,0,0.1-0.1,0.2-0.1c0.1-0.1,0.1-0.3,0.2-0.4c0-0.1,0-0.1,0-0.2c-0.2-1-0.4-2-0.6-2.9c-0.1-0.6-0.3-1.3-0.4-1.9
	c-0.1-0.7-0.2-1.4-0.3-2.1c0-0.2-0.1-0.3-0.3-0.2c-0.5,0.2-0.9,0.3-1.4,0.5c-0.2,0.1-0.2,0.1-0.3,0.3c-0.1,0.6-0.2,1.2-0.3,1.8
	c-0.3,1.3-0.5,2.5-0.8,3.8c-0.1,0.4-0.3,0.9,0,1.3C9.7,25.5,9.7,25.6,9.7,25.7z M17,9.4c-0.9-0.5-1.7-1.1-2.5-1.6
	c-0.2,0.3-0.4,0.6-0.4,1c0,0.6,0,1.3,0,1.9c0,0.4,0,0.7,0,1.1c0.2,0,0.4,0,0.6,0c0.1,0,0.2,0,0.2-0.1c0.3-0.3,0.6-0.7,0.9-1
	C16.1,10.3,16.5,9.9,17,9.4z M6.4,9.3c0.7,0.8,1.5,1.7,2.2,2.5c0,0,0.1,0.1,0.2,0.1c0.2,0,0.4-0.1,0.6-0.1c-0.1-1.1-0.1-2.2-0.2-3.3
	C9.2,8.2,9,8,8.8,7.8C8,8.3,7.2,8.8,6.4,9.3z"/>
</svg>
