<?xml version="1.0" encoding="utf-8"?>
<!-- Generator: Adobe Illustrator 21.0.0, SVG Export Plug-In . SVG Version: 6.00 Build 0)  -->
<svg version="1.1" id="Layer_1" xmlns="http://www.w3.org/2000/svg" xmlns:xlink="http://www.w3.org/1999/xlink" x="0px" y="0px"
	 viewBox="0 0 336.1 113.5" style="enable-background:new 0 0 336.1 113.5;" xml:space="preserve">
<style type="text/css">
	.st0{fill:#00284A;}
</style>
<g>
	<g>
		<g>
			<g>
				<g>
					<path class="st0" d="M65,17c0.2,0.2,1.5,1.6,1.8,1.8c0.3,0,1.6-0.3,1.7-0.3c0-0.2-0.1-4.2-0.1-4.3c-0.2-0.2-1.4-1.4-1.6-1.7
						c-0.2,0-1.5,0.1-1.7,0.1C65.1,12.8,65,16.8,65,17 M69,19.6c-0.3,0-0.9,0-1.3,0l0.2,0.2l-1.1,6.3l-1.1-7.2h0.2
						c-0.4-0.4-1-0.9-1.4-1.2l-0.1,0.2l-8.5-1.7l7.6-0.3l0.1,0.1c0-0.5,0.1-3.1,0.1-3.6h-0.1l-6.5-6.2l7.4,5.2v0.2
						c0.4,0,0.9,0.1,1.3,0.1l-0.1-0.1l1-4.5l1,5.5h-0.1c0.4,0.3,0.9,0.8,1.2,1.1v-0.2l6.4,1.6l-4.4,0.2h-1.1c0,0,0,0-0.1,0
						c0,0.5,0.1,3,0.1,3.5h0.1l6.3,6l-7.2-4.9C69.1,19.8,69,19.6,69,19.6z"/>
				</g>
			</g>
			<g>
				<g>
					<path class="st0" d="M65,17c0.2,0.2,1.5,1.6,1.8,1.8c0.3,0,1.6-0.3,1.7-0.3c0-0.2-0.1-4.2-0.1-4.3c-0.2-0.2-1.4-1.4-1.6-1.7
						c-0.2,0-1.5,0.1-1.7,0.1C65.1,12.8,65,16.8,65,17z M69,19.6c-0.3,0-0.9,0-1.3,0l0.2,0.2l-1.1,6.3l-1.1-7.2h0.2
						c-0.4-0.4-1-0.9-1.4-1.2l-0.1,0.2l-8.5-1.7l7.6-0.3l0.1,0.1c0-0.5,0.1-3.1,0.1-3.6h-0.1l-6.5-6.2l7.4,5.2v0.2
						c0.4,0,0.9,0.1,1.3,0.1l-0.1-0.1l1-4.5l1,5.5h-0.1c0.4,0.3,0.9,0.8,1.2,1.1v-0.2l6.4,1.6l-4.4,0.2h-1.1c0,0,0,0-0.1,0
						c0,0.5,0.1,3,0.1,3.5h0.1l6.3,6l-7.2-4.9C69.1,19.8,69,19.6,69,19.6z"/>
				</g>
			</g>
			<g>
				<g>
					<path class="st0" d="M80.3,27.6c0.1,0.2,0.4,1.6,0.5,1.9c0.3,0.2,1.7,0.9,1.9,1c0.1-0.1,2.7-1.9,2.8-2C85.4,28.3,85,27,85,26.7
						c-0.2-0.1-1.6-0.9-1.7-1C83.1,25.8,80.4,27.5,80.3,27.6 M82.5,31.3c-0.4-0.2-0.9-0.6-1.3-0.8l0.1,0.2l-5.4,2.1l3.8-4l0.2,0.1
						c-0.1-0.4-0.4-1.1-0.5-1.4l-0.2,0.1l-6.6-5.7l7,4.3v0.1c0.4-0.2,2.1-1.2,2.5-1.4L82,24.8l-2.1-6.1l0.8,1.5l2.8,4.8l-0.1,0.1
						c0.3,0.2,0.9,0.6,1.2,0.8v-0.1l3.9-1.3l-2.5,3l-0.1-0.1c0.1,0.4,0.4,0.9,0.5,1.3h0.1l5.8,5.1l-4.9-3l-1.2-0.7c0,0,0,0,0-0.1
						c-0.3,0.2-1.9,1.4-2.3,1.7H84l2.6,7.5l-4.2-7.6C82.4,31.5,82.5,31.4,82.5,31.3z"/>
				</g>
			</g>
			<g>
				<g>
					<path class="st0" d="M80.3,27.6c0.1,0.2,0.4,1.6,0.5,1.9c0.3,0.2,1.7,0.9,1.9,1c0.1-0.1,2.7-1.9,2.8-2C85.4,28.3,85,27,85,26.7
						c-0.2-0.1-1.6-0.9-1.7-1C83.1,25.8,80.4,27.5,80.3,27.6z M82.5,31.3c-0.4-0.2-0.9-0.6-1.3-0.8l0.1,0.2l-5.4,2.1l3.8-4l0.2,0.1
						c-0.1-0.4-0.4-1.1-0.5-1.4l-0.2,0.1l-6.6-5.7l7,4.3v0.1c0.4-0.2,2.1-1.2,2.5-1.4L82,24.8l-2.1-6.1l0.8,1.5l2.8,4.8l-0.1,0.1
						c0.3,0.2,0.9,0.6,1.2,0.8v-0.1l3.9-1.3l-2.5,3l-0.1-0.1c0.1,0.4,0.4,0.9,0.5,1.3h0.1l5.8,5.1l-4.9-3l-1.2-0.7c0,0,0,0,0-0.1
						c-0.3,0.2-1.9,1.4-2.3,1.7H84l2.6,7.5l-4.2-7.6C82.4,31.5,82.5,31.4,82.5,31.3z"/>
				</g>
			</g>
			<g>
				<g>
					<path class="st0" d="M89.2,43.9c-0.1,0.1-0.7,1.3-0.8,1.5c0.2,0.3,1.4,2,1.5,2.3c0.2,0.1,4.8,1.4,5,1.4
						c0.1-0.2,0.5-1.3,0.6-1.5c-0.2-0.3-1.3-1.9-1.5-2.1C93.9,45.4,89.4,43.9,89.2,43.9 M89,47.9c-0.3-0.4-0.7-1.2-1-1.7l-0.1,0.2
						L80.2,43l7.3,1.1l0.1,0.2c0.1-0.4,0.3-0.9,0.4-1.2c-0.1,0-0.3-0.1-0.3-0.1l-3.3-8l4.8,7.6v0.1c0.6,0.2,3.4,1.1,4,1.3l-0.1-0.1
						l1.8-5v1.4v4.9h-0.2c0.2,0.4,0.7,1.1,0.9,1.5v-0.1l6.1,2.9l-5.6-0.6L96,48.7c-0.1,0.3-0.2,0.9-0.3,1.2l0.2,0.1l4,9.1l-4.4-6.9
						l-1-1.6c0,0,0,0,0-0.1c-0.6-0.2-3.5-1-4.2-1.1v0.1l-2.6,7.1l0.6-8.6C88.8,47.9,89,47.9,89,47.9z"/>
				</g>
			</g>
			<g>
				<g>
					<path class="st0" d="M89.2,43.9c-0.1,0.1-0.7,1.3-0.8,1.5c0.2,0.3,1.4,2,1.5,2.3c0.2,0.1,4.8,1.4,5,1.4
						c0.1-0.2,0.5-1.3,0.6-1.5c-0.2-0.3-1.3-1.9-1.5-2.1C93.9,45.4,89.4,43.9,89.2,43.9z M89,47.9c-0.3-0.4-0.7-1.2-1-1.7l-0.1,0.2
						L80.2,43l7.3,1.1l0.1,0.2c0.1-0.4,0.3-0.9,0.4-1.2c-0.1,0-0.3-0.1-0.3-0.1l-3.3-8l4.8,7.6v0.1c0.6,0.2,3.4,1.1,4,1.3l-0.1-0.1
						l1.8-5v1.4v4.9h-0.2c0.2,0.4,0.7,1.1,0.9,1.5v-0.1l6.1,2.9l-5.6-0.6L96,48.7c-0.1,0.3-0.2,0.9-0.3,1.2l0.2,0.1l4,9.1l-4.4-6.9
						l-1-1.6c0,0,0,0,0-0.1c-0.6-0.2-3.5-1-4.2-1.1v0.1l-2.6,7.1l0.6-8.6C88.8,47.9,89,47.9,89,47.9z"/>
				</g>
			</g>
			<g>
				<g>
					<path class="st0" d="M87.6,62.3c-0.2,0-2,0.1-2.3,0.1c0,0.5,0.1,2.9,0.1,3.3c0.2,0.3,5.5,7,5.7,7.3c0.2,0,1.9-0.3,2.3-0.3
						c0-0.5-0.3-3.1-0.3-3.4C92.8,68.9,87.8,62.6,87.6,62.3 M84,64.8c0-0.6,0.1-1.6,0.2-2.2H84l-6.4-10.1l7.9,8.1v0.3
						c0.5-0.1,1.2-0.2,1.6-0.3c0-0.1-0.2-0.4-0.2-0.4l2.2-8.3l0.1,9.7h-0.1c0.6,0.8,3.8,4.8,4.4,5.6c0-0.1,0-0.2,0-0.2l6.8-1.3
						l-1.2,1l-4.2,3.5c0,0-0.2-0.2-0.3-0.3c0,0.6,0,1.6,0,2.3h0.2l7.1,10.9l-8.2-8.5v-0.3c-0.4,0.2-1.1,0.4-1.5,0.5l0.2,0.4
						l-2.3,13.2l-0.2-12.1v-2.6c0,0,0,0,0.1,0c-0.7-0.9-4.1-5.2-4.7-6.1c0,0.1,0,0.1,0,0.1l-9.5,1.7l8.3-5.1
						C83.7,64.5,83.9,64.7,84,64.8z"/>
				</g>
			</g>
			<g>
				<g>
					<path class="st0" d="M87.6,62.3c-0.2,0-2,0.1-2.3,0.1c0,0.5,0.1,2.9,0.1,3.3c0.2,0.3,5.5,7,5.7,7.3c0.2,0,1.9-0.3,2.3-0.3
						c0-0.5-0.3-3.1-0.3-3.4C92.8,68.9,87.8,62.6,87.6,62.3z M84,64.8c0-0.6,0.1-1.6,0.2-2.2H84l-6.4-10.1l7.9,8.1v0.3
						c0.5-0.1,1.2-0.2,1.6-0.3c0-0.1-0.2-0.4-0.2-0.4l2.2-8.3l0.1,9.7h-0.1c0.6,0.8,3.8,4.8,4.4,5.6c0-0.1,0-0.2,0-0.2l6.8-1.3
						l-1.2,1l-4.2,3.5c0,0-0.2-0.2-0.3-0.3c0,0.6,0,1.6,0,2.3h0.2l7.1,10.9l-8.2-8.5v-0.3c-0.4,0.2-1.1,0.4-1.5,0.5l0.2,0.4
						l-2.3,13.2l-0.2-12.1v-2.6c0,0,0,0,0.1,0c-0.7-0.9-4.1-5.2-4.7-6.1c0,0.1,0,0.1,0,0.1l-9.5,1.7l8.3-5.1
						C83.7,64.5,83.9,64.7,84,64.8z"/>
				</g>
			</g>
			<g>
				<g>
					<path class="st0" d="M69.5,73.1c-0.3-0.3-2.4-2.4-2.8-2.8c-0.4,0.3-2.6,2.2-2.9,2.4c0,0.3-0.1,3.2-0.1,6.3
						c-0.1,3.2-0.1,6.6-0.1,6.9c0.3,0.3,2.7,2.7,3.1,3.2c0.4-0.5,2.7-3,3-3.3c0-0.3-0.1-3.5-0.1-6.6C69.5,76.2,69.5,73.3,69.5,73.1
						 M63.1,70.3c0.6-0.4,1.6-0.9,2.2-1.3L65,68.7l1.7-13.3l1.7,13.7l-0.2,0.2c0.6,0.5,1.5,1.3,2.1,1.7c0-0.1,0.1-0.6,0.1-0.6
						l10.1-3.1l-8.6,7c0,0-0.1-0.1-0.2-0.1c0,0.7,0.1,2.8,0.2,5s0.1,4.5,0.2,5.3c0.1-0.1,0.2-0.1,0.2-0.1L83,94l-2.8-1.1l-9.4-3.8
						c0,0-0.1-0.6-0.1-0.7c-0.6,0.5-1.6,1.4-2.3,2l0.2,0.2l-2,22.8l-2-22.6l0.3-0.3c-0.7-0.5-1.7-1.3-2.4-1.8c0,0.1-0.1,0.6-0.1,0.6
						L46,96.8l12.4-10.3l2.5-2.1c0,0,0.1,0,0.1,0.1c0-0.9,0.1-3.3,0.2-5.7c0.1-2.3,0.2-4.5,0.2-5.3l-0.1,0.1l-11.2-10L63,69.7
						C63,69.7,63.1,70.2,63.1,70.3z"/>
				</g>
			</g>
			<g>
				<g>
					<path class="st0" d="M69.5,73.1c-0.3-0.3-2.4-2.4-2.8-2.8c-0.4,0.3-2.6,2.2-2.9,2.4c0,0.3-0.1,3.2-0.1,6.3
						c-0.1,3.2-0.1,6.6-0.1,6.9c0.3,0.3,2.7,2.7,3.1,3.2c0.4-0.5,2.7-3,3-3.3c0-0.3-0.1-3.5-0.1-6.6C69.5,76.2,69.5,73.3,69.5,73.1z
						 M68.4,93.8l-1.7,19.7l-2-22.6l0.3-0.3c-0.7-0.5-1.7-1.3-2.4-1.8c0,0.1-0.1,0.6-0.1,0.6L46,96.8l12.4-10.3l2.5-2.1
						c0,0,0.1,0,0.1,0.1c0-0.9,0.1-3.3,0.2-5.7c0.1-2.3,0.2-4.5,0.2-5.3l-0.1,0.1l-11.2-10L63,69.7c0,0,0.1,0.5,0.1,0.6
						c0.6-0.4,1.6-0.9,2.2-1.3L65,68.7l1.7-13.3l1.7,13.7l-0.2,0.2c0.6,0.5,1.5,1.3,2.1,1.7c0-0.1,0.1-0.6,0.1-0.6l10.1-3.1l-8.6,7
						c0,0-0.1-0.1-0.2-0.1c0,0.7,0.1,2.8,0.2,5s0.1,4.5,0.2,5.3c0.1-0.1,0.2-0.1,0.2-0.1L83,94l-2.8-1.1l-9.4-3.8
						c0,0-0.1-0.6-0.1-0.7c-0.6,0.5-1.6,1.4-2.3,2l0.2,0.2L68.4,93.8"/>
				</g>
			</g>
			<g>
				<g>
					<path class="st0" d="M41.8,59.6c0-0.4,0.2-3.7,0.2-4.3c-0.6-0.2-3.8-1.2-4.3-1.3c-0.2,0.1-2.8,1.7-5.5,3.4
						c-2.9,1.8-5.9,3.7-6.2,3.8c-0.1,0.5-0.6,4.4-0.8,5.2c0.8,0.2,4.7,1.1,5.2,1.2c0.3-0.2,3.2-2.3,6-4.3
						C39.1,61.5,41.6,59.8,41.8,59.6 M39.2,52c0.7,0.3,2,0.9,2.8,1.2v-0.4l12.2-5.7l-9.8,9L44,56c0.1,0.9,0.2,2.2,0.3,3
						c0.1-0.1,0.6-0.3,0.6-0.3L57,67.6l-14.3-5v-0.2c-0.6,0.4-2.4,1.8-4.4,3.3s-4.1,3.1-4.8,3.6c0.1,0,0.3,0.1,0.3,0.1l-0.5,21.1
						l-1.3-5L28.2,71c0,0,0.5-0.5,0.6-0.5c-0.9-0.3-2.5-0.9-3.6-1.3l-0.1,0.4L1,82.6l21.2-17.2l0.4,0.1c0-1.1,0.1-2.6,0.1-3.6
						c-0.1,0-0.6,0.3-0.6,0.3l-15.7-11L22,56.6l3.4,1.2v0.1c0.8-0.4,3-1.7,5.1-3c2-1.2,4-2.3,4.6-2.7c-0.1,0-0.1-0.1-0.1-0.1
						l0.2-13.8l4.3,13.2C39.6,51.6,39.3,51.9,39.2,52z"/>
				</g>
			</g>
			<g>
				<g>
					<path class="st0" d="M41.8,59.6c0-0.4,0.2-3.7,0.2-4.3c-0.6-0.2-3.8-1.2-4.3-1.3c-0.2,0.1-2.8,1.7-5.5,3.4
						c-2.9,1.8-5.9,3.7-6.2,3.8c-0.1,0.5-0.6,4.4-0.8,5.2c0.8,0.2,4.7,1.1,5.2,1.2c0.3-0.2,3.2-2.3,6-4.3
						C39.1,61.5,41.6,59.8,41.8,59.6z M39.2,52c0.7,0.3,2,0.9,2.8,1.2v-0.4l12.2-5.7l-9.8,9L44,56c0.1,0.9,0.2,2.2,0.3,3
						c0.1-0.1,0.6-0.3,0.6-0.3L57,67.6l-14.3-5v-0.2c-0.6,0.4-2.4,1.8-4.4,3.3s-4.1,3.1-4.8,3.6c0.1,0,0.3,0.1,0.3,0.1l-0.5,21.1
						l-1.3-5L28.2,71c0,0,0.5-0.5,0.6-0.5c-0.9-0.3-2.5-0.9-3.6-1.3l-0.1,0.4L1,82.6l21.2-17.2l0.4,0.1c0-1.1,0.1-2.6,0.1-3.6
						c-0.1,0-0.6,0.3-0.6,0.3l-15.7-11L22,56.6l3.4,1.2v0.1c0.8-0.4,3-1.7,5.1-3c2-1.2,4-2.3,4.6-2.7c-0.1,0-0.1-0.1-0.1-0.1
						l0.2-13.8l4.3,13.2C39.6,51.6,39.3,51.9,39.2,52z"/>
				</g>
			</g>
			<g>
				<g>
					<path class="st0" d="M33.2,31.3c0.3-0.2,2.7-1.4,3.1-1.7c-0.2-0.4-1.5-2.7-1.6-3c-0.2-0.1-2.8-0.9-5.4-1.7
						c-2.7-0.8-5.5-1.7-5.7-1.8c-0.4,0.1-3.2,1.3-3.8,1.5c0.2,0.5,1.5,2.9,1.6,3.3c0.3,0.1,3.2,0.9,6,1.7
						C30.2,30.5,32.9,31.3,33.2,31.3 M36.8,26.7c0.2,0.6,0.6,1.5,0.8,2.1l0.3-0.1l12.3,5.2l-13.1-2.4L37,31.2
						c-0.6,0.4-1.4,1.1-2,1.5c0.1,0,0.5,0.2,0.5,0.2l1.2,12.7l-5.4-12.4c0,0,0.1-0.1,0.2-0.1c-1.4-0.4-8.4-2.3-9.9-2.7
						c0,0.1,0.1,0.2,0.1,0.2L5.9,39L18,28c0,0,0.5,0.1,0.6,0.1c-0.2-0.7-0.5-1.7-0.8-2.4l-0.3,0.1L0,18.7l19.1,4.1l0.1,0.3
						c0.7-0.4,1.8-0.9,2.4-1.2c-0.1,0-0.5-0.2-0.5-0.2V11.4l3.6,8.4l0.9,2.1c0,0,0,0-0.1,0.1c1.3,0.4,7.6,2.5,8.8,2.9v-0.1l9.1-5
						L37.3,27C37.3,26.8,36.9,26.7,36.8,26.7z"/>
				</g>
			</g>
			<g>
				<g>
					<path class="st0" d="M33.2,31.3c0.3-0.2,2.7-1.4,3.1-1.7c-0.2-0.4-1.5-2.7-1.6-3c-0.2-0.1-2.8-0.9-5.4-1.7
						c-2.7-0.8-5.5-1.7-5.7-1.8c-0.4,0.1-3.2,1.3-3.8,1.5c0.2,0.5,1.5,2.9,1.6,3.3c0.3,0.1,3.2,0.9,6,1.7
						C30.2,30.5,32.9,31.3,33.2,31.3z M36.8,26.7c0.2,0.6,0.6,1.5,0.8,2.1l0.3-0.1l12.3,5.2l-13.1-2.4L37,31.2
						c-0.6,0.4-1.4,1.1-2,1.5c0.1,0,0.5,0.2,0.5,0.2l1.2,12.7l-5.4-12.4c0,0,0.1-0.1,0.2-0.1c-1.4-0.4-8.4-2.3-9.9-2.7
						c0,0.1,0.1,0.2,0.1,0.2L5.9,39L18,28c0,0,0.5,0.1,0.6,0.1c-0.2-0.7-0.5-1.7-0.8-2.4l-0.3,0.1L0,18.7l19.1,4.1l0.1,0.3
						c0.7-0.4,1.8-0.9,2.4-1.2c-0.1,0-0.5-0.2-0.5-0.2V11.4l3.6,8.4l0.9,2.1c0,0,0,0-0.1,0.1c1.3,0.4,7.6,2.5,8.8,2.9v-0.1l9.1-5
						L37.3,27C37.3,26.8,36.9,26.7,36.8,26.7z"/>
				</g>
			</g>
			<g>
				<g>
					<path class="st0" d="M46.5,16c0.3,0.1,2.6,0.8,3,0.9c0.1-0.3,0.7-1.6,0.8-1.8c-0.2-0.2-4.4-5.6-4.6-5.8c-0.3-0.1-2.5-0.9-3-1
						c-0.1,0.2-0.9,1.5-1,1.6C42,10.2,46.3,15.8,46.5,16 M51.7,16.2c-0.2,0.3-0.5,0.8-0.7,1.1l0.3,0.1l5.3,8.4L48.9,18l0.1-0.2
						c-0.6-0.1-1.6-0.3-2.2-0.4c0,0.1,0.2,0.3,0.2,0.3l-7.3,5.2l4.6-7c0,0,0.1,0,0.2,0c-0.6-0.7-3.4-4.4-4-5.1l-0.1,0.1L27.9,7.4
						L31,7.8l9,0.9c0,0,0.2,0.2,0.3,0.3c0.3-0.3,0.7-0.7,1-1L41,7.8L36.2,0l7.2,7.5l-0.1,0.1c0.6,0.2,1.5,0.4,2,0.5l-0.1-0.3
						l5.7-3.1l-2.6,3.8l-0.7,1c0,0,0,0-0.1,0c0.5,0.7,3.2,4,3.7,4.7l0,0l9.2,2.5L52,16.4L51.7,16.2z"/>
				</g>
			</g>
		</g>
	</g>
	<g>
		<path class="st0" d="M116.4,17v-1.5c3.2,0.1,5.7,0.2,7.6,0.2c1.2,0,2.6,0,4-0.1l3.8-0.1c0.4,0,0.8,0,1.1,0c2.5,0,4.5,0.3,6,0.8
			c1.4,0.6,2.6,1.4,3.4,2.7c0.8,1.2,1.2,2.6,1.2,4.2c0,1.4-0.3,2.8-1,4.2c-0.7,1.4-1.7,2.6-3,3.5c-1.3,1-2.6,1.7-4,2.1
			c-1,0.3-2,0.4-3.3,0.4c-1,0-2.1-0.1-3.3-0.3l-0.5-1.8c1.4,0.3,2.5,0.5,3.3,0.5c1.2,0,2.3-0.3,3.4-0.9c1.1-0.6,1.9-1.5,2.5-2.6
			c0.6-1.2,0.9-2.5,0.9-3.9s-0.3-2.6-0.9-3.7c-0.6-1.1-1.5-2-2.7-2.5c-1.2-0.6-2.6-0.9-4.3-0.9c-1.5,0-3.1,0.3-4.9,0.8
			c-0.1,1.7-0.2,4.3-0.2,7.9v12c0,2.2,0,4.3,0.1,6.3c0,1.5,0.2,2.4,0.3,2.7c0.2,0.3,0.5,0.5,0.9,0.6s1.6,0.2,3.5,0.3v1.5
			c-2.9-0.1-5.1-0.2-6.5-0.2c-0.5,0-3,0.1-7.5,0.2v-1.5c1.9,0,3-0.1,3.4-0.3c0.4-0.1,0.7-0.3,0.9-0.6c0.2-0.3,0.3-1.1,0.4-2.3
			c0-0.3,0.1-2.6,0.1-6.8v-11c0-2.2,0-4.3-0.1-6.4c0-1.5-0.2-2.4-0.3-2.7c-0.2-0.3-0.5-0.5-0.9-0.6C119.4,17.1,118.3,17.1,116.4,17z
			"/>
		<path class="st0" d="M147.2,32.7c0-2.5,0.4-4.8,1.1-7c0.8-2.1,2-4.1,3.8-5.8c1.8-1.7,3.7-3,6-3.9c2.2-0.9,4.7-1.3,7.6-1.3
			c2.6,0,5,0.4,7.2,1.1c2.2,0.7,3.9,1.7,5.3,2.9c1.4,1.2,2.5,2.6,3.3,4c0.6,1.1,1.1,2.4,1.4,3.8c0.4,1.5,0.5,3,0.5,4.7
			c0,5.4-1.8,9.8-5.4,13.4c-3.6,3.6-8.2,5.4-13.7,5.4c-2.5,0-4.8-0.4-7-1.2s-4-2-5.5-3.6s-2.6-3.5-3.4-5.8
			C147.6,37.2,147.2,34.9,147.2,32.7z M152.2,30.7c0,1.5,0.2,3.1,0.5,4.6c0.3,1.6,0.7,2.9,1.1,4c0.8,1.9,1.8,3.5,3,4.8
			s2.6,2.3,4.1,2.9c1.5,0.6,3.2,0.9,5.1,0.9c2.6,0,4.8-0.6,6.7-1.9c1.9-1.3,3.3-3,4.2-5.3s1.4-4.9,1.4-7.9c0-2.5-0.3-4.9-1-7
			c-0.4-1.3-1-2.5-1.6-3.5c-0.7-1.1-1.5-2-2.5-2.8c-0.9-0.8-2.2-1.5-3.7-2s-3.1-0.8-4.9-0.8c-2.5,0-4.8,0.6-6.7,1.7
			s-3.4,2.8-4.3,4.9C152.7,25.6,152.2,28,152.2,30.7z"/>
		<path class="st0" d="M189.2,49.4v-1.2c1-0.5,1.6-0.8,1.9-1.1c0.2-0.1,0.3-0.3,0.3-0.5c0.1-0.4,0.2-1.4,0.3-2.9
			c0.1-2.2,0.1-3.5,0.1-3.9V26.9c0-2.2,0-4.3-0.1-6.4c0-1.5-0.2-2.4-0.3-2.7c-0.2-0.3-0.5-0.5-0.9-0.6s-1.6-0.2-3.5-0.3v-1.5
			c3.9,0.1,6.3,0.2,7.2,0.2c1,0,3.3-0.1,6.9-0.2V17c-1.9,0-3,0.1-3.5,0.3c-0.4,0.1-0.7,0.3-0.8,0.6c-0.2,0.3-0.3,1.1-0.4,2.3
			c0,0.3-0.1,2.6-0.1,6.8v16c0,1.7,0,3,0.1,4.1c1.8,0.1,3.6,0.2,5.4,0.2c4.5,0,7.6-0.3,9.4-0.9c0.2-0.5,0.4-1,0.5-1.6l1-4h1.6
			c-0.3,2.4-0.7,5.2-1,8.4c-0.7,0.1-1.2,0.2-1.6,0.2c-0.8,0-2.1,0.1-3.8,0.1l-14.2-0.2C192.3,49.3,190.8,49.3,189.2,49.4z"/>
		<path class="st0" d="M218.2,49.4v-1.6c1.3,0,2-0.1,2.4-0.2c0.3-0.1,0.6-0.3,0.9-0.5c0.3-0.2,0.6-0.9,1.1-1.9
			c0.3-0.6,1.3-2.8,3.1-6.7l6-13.5c0.7-1.5,2-4.8,4.2-9.9h1.5l10.2,24c1.7,3.9,2.8,6.3,3.3,7.3c0.3,0.6,0.6,0.9,1,1.1
			c0.4,0.2,1.2,0.3,2.4,0.3v1.6c-2.5-0.2-4.2-0.2-5.2-0.2l-7.7,0.2v-1.6c1.8,0,2.9-0.1,3.3-0.2c0.4-0.1,0.6-0.2,0.8-0.3
			c0.1-0.2,0.2-0.3,0.2-0.6c0-0.4-0.1-0.8-0.3-1.4l-2.9-7.3h-13.8l-2.6,6.1c-0.5,1.1-0.7,1.9-0.7,2.4c0,0.2,0.1,0.4,0.2,0.5
			c0.2,0.2,0.4,0.3,0.8,0.4c0.6,0.1,1.6,0.2,3.1,0.2v1.6c-2.7-0.1-4.7-0.2-6.1-0.2C221.8,49.2,220.1,49.3,218.2,49.4z M229.4,36h12
			l-6-14.4L229.4,36z"/>
		<path class="st0" d="M258.7,17v-1.5c0.6,0,1.6,0,2.8,0.1l4.6,0.1c0.9,0,2.3,0,4.2-0.1c2.5-0.1,3.9-0.1,4.3-0.1
			c3,0,5.3,0.3,6.7,0.8c1.4,0.5,2.5,1.4,3.2,2.6c0.8,1.2,1.1,2.5,1.1,4c0,1.3-0.4,2.7-1.1,4s-1.8,2.4-3.1,3.3
			c-1.4,0.9-3.1,1.6-5.3,2c0.4,0.6,1.3,1.8,2.8,3.7l6,7.9c1.7,2.2,2.7,3.5,3,3.7c0.1,0.1,0.3,0.2,0.4,0.2c0.2,0.1,0.8,0.1,1.6,0.1
			v1.5c-1.2-0.1-2.3-0.2-3.2-0.2c-0.9,0-2.1,0.1-3.4,0.2c-1-1.2-2.8-3.5-5.2-7c-1.4-1.9-2.6-3.5-3.6-4.8c-1.7-2.1-3.3-4.1-4.8-5.8
			l0.2-0.7c0.8,0,1.5,0.1,1.9,0.1c2.9,0,5.1-0.7,6.6-2.1s2.2-3.2,2.2-5.4c0-2-0.6-3.5-1.9-4.7c-1.3-1.2-3.2-1.7-5.9-1.7
			c-1.6,0-3.3,0.2-4.8,0.7c-0.1,0.9-0.1,1.7-0.1,2.4c0,0.2-0.1,2.5-0.2,6.9V38c0,2.2,0,4.3,0.1,6.3c0,1.5,0.1,2.4,0.3,2.7
			c0.2,0.3,0.5,0.5,0.9,0.6s1.6,0.2,3.4,0.3v1.5c-2.3-0.1-4.3-0.2-6.2-0.2c-1.5,0-4.1,0.1-7.7,0.2v-1.5c1.9,0,3-0.1,3.4-0.3
			c0.4-0.1,0.7-0.3,0.9-0.6c0.2-0.3,0.3-1.1,0.4-2.3c0-0.3,0.1-2.6,0.1-6.8v-11c0-2.2,0-4.3-0.1-6.4c0-1.5-0.2-2.4-0.3-2.7
			c-0.2-0.3-0.5-0.5-0.9-0.6C261.7,17.1,260.6,17.1,258.7,17z"/>
		<path class="st0" d="M148.4,89.3l-0.9,2.2c-1.9,0.9-3.7,1.6-5.5,2s-3.7,0.6-5.8,0.6c-2.5,0-4.8-0.3-6.9-0.9
			c-2.1-0.6-4-1.5-5.6-2.7s-2.9-2.5-3.9-3.9s-1.8-3-2.3-4.7s-0.8-3.5-0.8-5.5c0-5.1,1.8-9.3,5.3-12.6c3.5-3.3,8.4-5,14.5-5
			c1.5,0,2.8,0.1,4,0.3s2.7,0.5,4.5,1s2.9,0.7,3.3,0.8c-0.4,0.9-0.6,1.7-0.8,2.6c-0.3,1.4-0.4,2.9-0.5,4.7h-1.5v-2.8
			c-0.2-1.6-1-2.7-2.6-3.5s-3.9-1.1-6.9-1.1c-2.3,0-4.2,0.3-5.8,0.9c-1.6,0.5-3,1.4-4.2,2.6s-2.2,2.7-3,4.5s-1.2,4.1-1.2,6.9
			c0,4.8,1.5,8.7,4.4,11.7c2.9,2.9,6.8,4.4,11.7,4.4c2.2,0,4.2-0.3,6.1-0.9c1.3-0.4,2.5-1.1,3.8-1.9L148.4,89.3z"/>
		<path class="st0" d="M152,93.5v-1.6c1.3,0,2-0.1,2.4-0.2c0.3-0.1,0.6-0.3,0.9-0.5c0.3-0.2,0.6-0.9,1.1-1.9
			c0.3-0.6,1.3-2.8,3.1-6.7l6-13.5c0.7-1.5,2.1-4.8,4.2-9.9h1.5l10.2,24c1.7,3.9,2.8,6.3,3.3,7.3c0.3,0.6,0.6,0.9,1,1.1
			s1.2,0.3,2.4,0.3v1.6c-2.5-0.2-4.2-0.2-5.2-0.2l-7.7,0.2v-1.6c1.8,0,2.9-0.1,3.3-0.2c0.4-0.1,0.6-0.2,0.8-0.3
			c0.1-0.2,0.2-0.3,0.2-0.6c0-0.4-0.1-0.8-0.3-1.4l-2.9-7.3h-13.8l-2.6,6.1c-0.5,1.1-0.7,1.9-0.7,2.4c0,0.2,0.1,0.4,0.2,0.5
			c0.2,0.2,0.4,0.3,0.8,0.4c0.6,0.1,1.6,0.2,3.1,0.2v1.6c-2.7-0.1-4.7-0.2-6.1-0.2C155.5,93.3,153.8,93.4,152,93.5z M163.1,80.1h12
			l-6-14.4L163.1,80.1z"/>
		<path class="st0" d="M191.9,61.1v-1.5c3.2,0.1,5.7,0.2,7.6,0.2c1.2,0,2.6,0,4-0.1l3.8-0.1c0.4,0,0.8,0,1.1,0c2.5,0,4.5,0.3,6,0.8
			c1.4,0.6,2.6,1.4,3.4,2.7c0.8,1.2,1.2,2.6,1.2,4.2c0,1.4-0.3,2.8-1,4.2c-0.7,1.4-1.7,2.6-3,3.5c-1.3,1-2.6,1.7-4,2.1
			c-1,0.3-2,0.4-3.3,0.4c-1,0-2.1-0.1-3.3-0.3l-0.5-1.8c1.4,0.3,2.5,0.5,3.3,0.5c1.2,0,2.3-0.3,3.4-0.9c1.1-0.6,1.9-1.5,2.5-2.6
			c0.6-1.2,0.9-2.5,0.9-3.9s-0.3-2.6-0.9-3.7c-0.6-1.1-1.5-1.9-2.7-2.5s-2.6-0.9-4.3-0.9c-1.5,0-3.1,0.3-4.9,0.8
			c-0.1,1.7-0.2,4.3-0.2,7.9v12c0,2.2,0,4.3,0.1,6.3c0,1.5,0.2,2.4,0.3,2.7c0.2,0.3,0.5,0.5,0.9,0.6s1.6,0.2,3.5,0.3v1.5
			c-3-0.1-5.1-0.2-6.5-0.2c-0.5,0-3,0.1-7.5,0.2V92c1.9,0,3-0.1,3.4-0.3c0.4-0.1,0.7-0.3,0.9-0.6c0.2-0.3,0.3-1.1,0.4-2.3
			c0-0.3,0.1-2.6,0.1-6.8V71c0-2.2,0-4.3-0.1-6.4c0-1.5-0.2-2.4-0.3-2.7c-0.2-0.3-0.5-0.5-0.9-0.6C195,61.2,193.8,61.1,191.9,61.1z"
			/>
		<path class="st0" d="M237.2,92v1.5c-3.4-0.1-5.6-0.2-6.7-0.2l-7.4,0.2V92c1.9,0,3-0.1,3.4-0.3c0.4-0.1,0.7-0.3,0.9-0.6
			c0.2-0.3,0.3-1.1,0.4-2.3c0-0.3,0.1-2.6,0.1-6.8V71c0-2.2,0-4.3-0.1-6.4c0-1.5-0.2-2.4-0.3-2.7c-0.2-0.3-0.5-0.5-0.9-0.6
			s-1.6-0.2-3.5-0.3v-1.5c3,0.1,5.4,0.2,7,0.2s3.9-0.1,7-0.2V61c-1.9,0-3,0.1-3.4,0.3c-0.4,0.1-0.7,0.3-0.8,0.6
			c-0.2,0.3-0.3,1.1-0.4,2.3c0,0.3-0.1,2.6-0.1,6.8v11.1c0,2.2,0,4.3,0.1,6.3c0,1.5,0.2,2.4,0.3,2.7c0.2,0.3,0.5,0.5,0.9,0.6
			C234.2,91.9,235.3,92,237.2,92z"/>
		<path class="st0" d="M243.2,67.5h-1.5c0-3.8-0.1-6.4-0.2-7.9c1.7,0.1,4.5,0.1,8.2,0.2c3,0.1,5,0.1,6,0.1c1.1,0,3.6,0,7.5-0.1
			c2.9-0.1,4.9-0.1,6.2-0.2c-0.2,1.8-0.3,4.4-0.4,7.9h-1.5l-0.2-2.3c-0.1-1.4-0.2-2.2-0.3-2.4c0-0.2-0.1-0.3-0.2-0.4
			c-0.1-0.1-0.2-0.1-0.4-0.2c-0.2,0-1-0.1-2.4-0.2c-1.4-0.1-2.5-0.1-3.3-0.1h-2.9c-0.2,1.5-0.2,3.6-0.2,6.2v14c0,2.2,0,4.3,0.1,6.3
			c0,1.5,0.2,2.4,0.3,2.7c0.2,0.3,0.5,0.5,0.9,0.6s1.6,0.2,3.5,0.3v1.5c-2.9-0.1-5-0.2-6.4-0.2c-0.6,0-3.1,0.1-7.5,0.2V92
			c1.9,0,3-0.1,3.4-0.3c0.4-0.1,0.7-0.3,0.8-0.6c0.2-0.3,0.3-1.1,0.4-2.3c0-0.3,0-2.6,0.1-6.8V68.2c0-0.7,0-1.4,0-2.2l-0.1-4h-3.6
			c-2.1,0-3.7,0.1-4.9,0.2c-0.4,0-0.6,0.2-0.7,0.3c-0.2,0.3-0.3,1.1-0.5,2.6L243.2,67.5z"/>
		<path class="st0" d="M269.5,93.5v-1.6c1.3,0,2-0.1,2.4-0.2c0.3-0.1,0.6-0.3,0.9-0.5s0.6-0.9,1.1-1.9c0.3-0.6,1.3-2.8,3.1-6.7
			l6-13.5c0.7-1.5,2-4.8,4.2-9.9h1.5l10.2,24c1.7,3.9,2.8,6.3,3.3,7.3c0.3,0.6,0.6,0.9,1,1.1s1.2,0.3,2.4,0.3v1.6
			c-2.5-0.2-4.2-0.2-5.2-0.2l-7.7,0.2v-1.6c1.8,0,2.9-0.1,3.3-0.2s0.6-0.2,0.8-0.3c0.1-0.2,0.2-0.3,0.2-0.6c0-0.4-0.1-0.8-0.3-1.4
			l-2.9-7.3H280l-2.6,6.1c-0.5,1.1-0.7,1.9-0.7,2.4c0,0.2,0.1,0.4,0.2,0.5c0.2,0.2,0.4,0.3,0.8,0.4c0.6,0.1,1.6,0.2,3.1,0.2v1.6
			c-2.7-0.1-4.7-0.2-6.1-0.2C273,93.3,271.3,93.4,269.5,93.5z M280.6,80.1h12l-6-14.4L280.6,80.1z"/>
		<path class="st0" d="M310.9,93.5v-1.2c1-0.5,1.6-0.8,1.9-1.1c0.2-0.1,0.3-0.3,0.3-0.5c0.1-0.4,0.2-1.4,0.3-2.9
			c0.1-2.2,0.1-3.5,0.1-3.9V71c0-2.2,0-4.3-0.1-6.4c0-1.5-0.2-2.4-0.3-2.7c-0.2-0.3-0.5-0.5-0.9-0.6s-1.6-0.2-3.5-0.3v-1.5
			c3.9,0.1,6.3,0.2,7.2,0.2c1,0,3.3-0.1,6.9-0.2V61c-1.9,0-3,0.1-3.5,0.3c-0.4,0.1-0.7,0.3-0.8,0.6c-0.2,0.3-0.3,1.1-0.4,2.3
			c0,0.3-0.1,2.6-0.1,6.8v16.1c0,1.7,0,3,0.1,4.1c1.8,0.1,3.6,0.2,5.4,0.2c4.5,0,7.6-0.3,9.4-0.9c0.2-0.5,0.4-1,0.5-1.6l1-4h1.6
			c-0.3,2.4-0.7,5.2-1,8.4c-0.7,0.1-1.2,0.2-1.6,0.2c-0.8,0-2.1,0.1-3.8,0.1l-14.2-0.2C314,93.4,312.5,93.4,310.9,93.5z"/>
	</g>
</g>
</svg>
