<?xml version="1.0" encoding="utf-8"?>
<!-- Generator: Adobe Illustrator 23.0.6, SVG Export Plug-In . SVG Version: 6.00 Build 0)  -->
<svg version="1.1" id="Layer_1" xmlns="http://www.w3.org/2000/svg" xmlns:xlink="http://www.w3.org/1999/xlink" x="0px" y="0px"
	 viewBox="0 0 727 191" style="enable-background:new 0 0 727 191;" xml:space="preserve">
<style type="text/css">
	.st0{fill:#FFFFFF;}
	.st1{fill-rule:evenodd;clip-rule:evenodd;fill:#004A88;}
	.st2{fill-rule:evenodd;clip-rule:evenodd;fill:#00A2DC;}
	.st3{fill-rule:evenodd;clip-rule:evenodd;fill:#A7DBF3;}
	.st4{fill-rule:evenodd;clip-rule:evenodd;fill:#7ACCEE;}
	.st5{fill-rule:evenodd;clip-rule:evenodd;fill:#0080BC;}
</style>
<g>
	<g>
		<g>
			<path class="st0" d="M224.5,34.5h57c18.4,0,25.2,12.8,25.2,24.5c0,11.2-5.4,19.5-15.5,22.7v0.3c8.1,1.2,12.9,8.8,13.4,19.6
				c0.8,17.1,1.3,21.4,4.4,25h-14.4c-2.2-2.6-2.2-6.4-2.8-17.5c-0.9-16.5-6.5-21.5-17.8-21.5h-35.7v39.1h-13.7V34.5z M276.3,75.6
				c13.4,0,16.6-8.1,16.6-14.6c0-8.8-5.3-14.7-16.2-14.7h-38.5v29.3H276.3z"/>
			<path class="st0" d="M327.9,96.6c1,13.9,13.4,21.4,24.9,21.4c7.3,0,17.4-2.4,21.8-12h13.7c-6.4,16.2-21.5,22.8-34.8,22.8
				c-26.3,0-39.2-16.6-39.2-36.1s12.9-36.1,39.2-36.1C371.2,56.7,390,67,390,95v1.7H327.9z M376.3,86.6
				c-1.9-12.2-11.5-19.1-23.6-19.1c-11.9,0-22.6,7-24.5,19.1H376.3z"/>
			<path class="st0" d="M402.2,96.1c0.1,17.1,10.6,27.3,35.3,27.3c22.6,0,30.8-9.7,30.8-20.5c0-10.3-4.9-15-24.2-19L427,80.4
				c-20.1-4.3-27.8-10.2-27.8-24.1c0-13.8,12-23.9,34.8-23.9c23.2,0,37.9,8.5,38.6,28.1h-5.9c-0.8-10.6-6.7-23-30.9-23
				c-22.4,0-29.8,8.3-29.8,18.8c0,9.8,4.3,14.7,21.8,18.2l19,3.7c18.5,3.6,28.5,9.5,28.5,24.2c0,12.5-8.2,26-37,26
				c-30.2,0-41.8-13-41.8-32.5H402.2z"/>
			<path class="st0" d="M516.7,58.5c23.6,0,37.3,16.5,37.3,35.1c0,18.6-13.7,35.1-37.3,35.1c-23.6,0-37.3-16.5-37.3-35.1
				C479.5,75,493.1,58.5,516.7,58.5z M516.7,123.5c20.9,0,31.3-14.8,31.3-29.9c0-15.1-10.5-29.9-31.3-29.9
				c-20.9,0-31.3,14.8-31.3,29.9C485.4,108.6,495.9,123.5,516.7,123.5z"/>
			<path class="st0" d="M562.5,34.5h5.9v92.1h-5.9V34.5z"/>
			<path class="st0" d="M573.9,60.5h6.7l28.9,60.1l28.9-60.1h6.7l-32.6,66h-5.9L573.9,60.5z"/>
			<path class="st0" d="M652,94.8c0.4,16.5,11.6,28.6,31.5,28.6c20.5,0,25.8-12.9,28.1-18.8h5.9c-5.5,16.6-17.1,24-34.7,24
				c-22.6,0-36.8-13.7-36.8-35.6c0-13.8,8.8-34.6,36.9-34.6c23,0,36.1,15.2,36.4,36.4H652z M712.6,89.7c-2.4-18.1-15.1-26-30.3-26
				c-17,0-27.7,10.3-30.3,26H712.6z"/>
		</g>
	</g>
	<g>
		<path class="st0" d="M227.7,147.3h5.8l10.4,23.4h-5.5l-2.5-5.8h-11l-2.4,5.8h-5.3L227.7,147.3z M234.6,161.2l-4-9.9l-4.1,9.9
			H234.6z"/>
		<path class="st0" d="M261.1,146.6c3.6,0,10.8,0.7,11.4,7.4h-5.3c-0.2-1.8-1.8-3.8-5.9-3.8c-3.3,0-5.4,1-5.4,3.2
			c0,5.5,17.4,0.2,17.4,10.2c0,6-6.3,7.6-11.2,7.6c-8.4,0-11.8-3.3-11.9-8.2h5.3c0.1,3.1,2.7,4.6,6.7,4.6c3,0,5.8-0.9,5.8-3.4
			c0-5.8-17.2-0.8-17.2-10.4C250.7,148.6,255.4,146.6,261.1,146.6z"/>
		<path class="st0" d="M291.3,146.6c3.6,0,10.8,0.7,11.4,7.4h-5.3c-0.2-1.8-1.8-3.8-5.9-3.8c-3.3,0-5.4,1-5.4,3.2
			c0,5.5,17.4,0.2,17.4,10.2c0,6-6.3,7.6-11.2,7.6c-8.4,0-11.8-3.3-11.9-8.2h5.3c0.1,3.1,2.7,4.6,6.7,4.6c3,0,5.8-0.9,5.8-3.4
			c0-5.8-17.2-0.8-17.2-10.4C281,148.6,285.6,146.6,291.3,146.6z"/>
		<path class="st0" d="M312.4,147.3h20.3v3.7h-15.4v5.9h14.8v3.7h-14.8v6.5H333v3.7h-20.6V147.3z"/>
		<path class="st0" d="M349,150.9h-8.8v-3.7h22.5v3.7h-8.8v19.7H349V150.9z"/>
		<path class="st0" d="M388.5,147.3h7.1l8.2,18.1l8.1-18.1h7v23.4h-4.6l0.2-19.3h-0.1l-8.6,19.3h-4.2l-8.6-19.3h-0.1l0.2,19.3h-4.6
			V147.3z"/>
		<path class="st0" d="M437.3,147.3h5.8l10.4,23.4h-5.5l-2.5-5.8h-11l-2.4,5.8h-5.3L437.3,147.3z M444.2,161.2l-4-9.9l-4.1,9.9
			H444.2z"/>
		<path class="st0" d="M461.6,147.3h5.6l13.9,17.6h0.1v-17.6h4.7v23.4h-5.5l-14-17.6h-0.1v17.6h-4.7V147.3z"/>
		<path class="st0" d="M504.4,147.3h5.8l10.4,23.4h-5.5l-2.5-5.8h-11l-2.4,5.8H494L504.4,147.3z M511.2,161.2l-4-9.9l-4.1,9.9H511.2
			z"/>
		<path class="st0" d="M553.6,170.7h-2.9l-0.7-3c-1.9,2.3-5.2,3.7-8.9,3.7c-9.9,0-13.8-5.8-13.8-12.4c0-6.6,4.1-12.4,13.6-12.4
			c7.1,0,11.7,3.6,12.2,8.2h-5.3c-0.9-3.2-3.8-4.5-7-4.5c-6.1,0-8.4,3.7-8.4,8.8c0,6.2,4,8.5,8.1,8.5c5,0,7.3-2.3,8.1-6.2h-6.6v-3.7
			h11.5V170.7z"/>
		<path class="st0" d="M564.3,147.3h20.3v3.7h-15.4v5.9H584v3.7h-14.8v6.5h15.7v3.7h-20.6V147.3z"/>
		<path class="st0" d="M594.5,147.3h7.1l8.2,18.1l8.1-18.1h7v23.4h-4.6l0.2-19.3h-0.1l-8.6,19.3h-4.2l-8.6-19.3H599l0.2,19.3h-4.6
			V147.3z"/>
		<path class="st0" d="M635.7,147.3H656v3.7h-15.4v5.9h14.8v3.7h-14.8v6.5h15.7v3.7h-20.6V147.3z"/>
		<path class="st0" d="M665.9,147.3h5.6l13.9,17.6h0.1v-17.6h4.7v23.4h-5.5l-14-17.6h-0.1v17.6h-4.7V147.3z"/>
		<path class="st0" d="M707.3,150.9h-8.8v-3.7H721v3.7h-8.8v19.7h-4.9V150.9z"/>
	</g>
	<polygon class="st1" points="191.7,143.5 81.6,143.5 101.8,108.5 170.9,108.5 	"/>
	<polygon class="st1" points="25.8,143.5 81.3,48.8 101.5,84.3 66.8,143.5 	"/>
	<polygon class="st1" points="108.9,0.5 163,95.7 122.7,95.7 88.7,36 	"/>
	<polygon class="st2" points="109.8,189.7 162.9,95.7 122.6,95.7 88.9,154.2 	"/>
	<polygon class="st2" points="189.1,48.8 81.3,48.8 101.5,84.3 169,84.3 	"/>
	<polygon class="st2" points="27.7,50.1 81.6,143.5 101.8,108.5 68.5,49.8 	"/>
	<polygon class="st3" points="191.8,143.5 165.1,189.7 144.4,154.5 171.1,108.5 	"/>
	<polygon class="st4" points="109.8,189.7 165.1,189.7 144.4,154.5 88.9,154.2 	"/>
	<polygon class="st4" points="108.9,0.5 161.7,0.5 141.5,36 88.7,36 	"/>
	<polygon class="st3" points="189.1,48.8 161.7,0.5 141.5,36 169,84.3 	"/>
	<path class="st5" d="M148.8,48.8c-9.2,0-17,0-19.5,0c16.5,0,39.7,35.5,39.7,35.5v0L148.8,48.8z"/>
	<path class="st5" d="M47.8,85c4.6,8,8.5,14.7,9.8,16.9c-8.3-14.3,10.9-52.1,10.9-52.1l0,0L47.8,85z"/>
	<path class="st5" d="M129.8,154.4c4.6-7.9,8.5-14.7,9.8-16.9c-8.3,14.3-50.6,16.6-50.6,16.6v0L129.8,154.4z"/>
	<polygon class="st4" points="25.8,143.5 -0.4,97.8 40.4,97.8 66.8,143.5 	"/>
	<polygon class="st3" points="27.7,50.1 -0.4,97.8 40.4,97.8 68.5,49.8 	"/>
</g>
</svg>
