<?xml version="1.0" encoding="UTF-8"?> <svg xmlns="http://www.w3.org/2000/svg" xmlns:xlink="http://www.w3.org/1999/xlink" version="1.1" id="Camada_1" x="0px" y="0px" viewBox="0 0 206 77" style="enable-background:new 0 0 206 77;" xml:space="preserve"> <style type="text/css"> .st0{fill-rule:evenodd;clip-rule:evenodd;fill:#102432;} .st1{fill:#102432;} </style> <path class="st0" d="M47.8,37.3c4.6,9,14.2,14.8,24.8,14.1c14.3-1,25.1-13.5,24.1-28c-0.6-9.1-5.8-16.9-13.1-21.1 c3.6,3.6,6.2,8.4,7.1,13.9c1.2,7.2-0.9,14.2-5,19.6c-0.9,1.2-2,2.4-3.1,3.4c-3.4,3-7.7,5.2-12.5,6C61.5,46.6,53.2,43.4,47.8,37.3z M82.5,10.2C79,7.3,74.4,5.7,69.5,6c-10.2,0.7-18,9.7-17.3,20c0.3,4.3,2,8.2,4.7,11.3c-4.8-2.8-8.4-7.7-9.3-13.7 C45.9,13.1,53,3.2,63.4,1.5C71.1,0.2,78.5,3.9,82.5,10.2z"></path> <path class="st1" d="M177.4,47.4L177.4,47.4c-3.1-1.4-5.5-3.5-7.3-6.1l0,0c-1.8-2.6-2.8-5.6-3.1-9l-0.1-0.8h7.1l0.1,0.6 c0.3,2.3,1.1,4.2,2.2,5.9c1.1,1.6,2.6,2.9,4.5,3.9c1.9,0.9,4.2,1.4,6.8,1.4c3.8,0,6.6-0.7,8.6-2.1c1.9-1.4,2.9-3.4,2.9-6 c0-1.8-0.8-3.2-1.9-4.2c-1.2-1-2.8-1.7-4.5-2.3c-2.1-0.6-4.2-1.1-6.3-1.7l0,0l0,0c-0.6-0.1-1.2-0.3-1.7-0.4 c-2.7-0.7-5.4-1.4-8.1-2.4l0,0c-2.3-0.9-4.2-2.1-5.7-3.7c-1.5-1.7-2.2-4.3-2.2-6.8c0-2.6,0.8-4.9,2.3-6.9l0,0c1.5-2,3.6-3.5,6.3-4.5 l0,0l0,0c2.7-1,5.7-1.5,9-1.5c3.8,0,7.2,0.7,10,2.1c2.9,1.3,5.3,3.3,7,5.8c1.7,2.5,2.7,5.5,2.9,9l0.1,0.8h-7.3l-0.1-0.6 c-0.4-3.4-1.6-6-3.8-7.9c-2.2-1.9-5-2.8-8.6-2.8c-2.3,0-4.3,0.4-6,1.1c-1.6,0.7-2.9,1.7-3.8,2.9v0l0,0l0,0c-0.9,1.2-1.3,2.6-1.3,4.3 c0,1.8,0.5,2.9,1.5,4c1.1,1.1,2.6,2,4.7,2.6c2.4,0.7,4.8,1.2,7.3,1.8c0.5,0.1,1,0.2,1.4,0.3c2.9,0.6,5.9,1.3,8.8,2.5 c2.1,0.8,3.9,2.3,5.2,3.8c1.4,1.6,2.1,3.8,2.1,6.3c0,2.6-0.8,4.9-2.3,6.9c-1.5,1.9-3.7,3.4-6.4,4.4l0,0l0,0c-2.7,1-5.8,1.5-9.4,1.5 C183.9,49.5,180.4,48.8,177.4,47.4L177.4,47.4z"></path> <path class="st1" d="M11.7,47.4L11.7,47.4c-3.1-1.4-5.5-3.5-7.3-6.1l0,0c-1.8-2.6-2.8-5.6-3.1-9l-0.1-0.8h7.1l0.1,0.6 c0.3,2.3,1.1,4.2,2.2,5.9c1.1,1.6,2.6,2.9,4.5,3.9c1.9,0.9,4.2,1.4,6.8,1.4c3.8,0,6.6-0.7,8.6-2.1c1.9-1.4,2.9-3.4,2.9-6 c0-1.8-0.8-3.2-1.9-4.2c-1.2-1-2.8-1.7-4.5-2.3c-2.1-0.6-4.2-1.1-6.3-1.7l0,0l0,0c-0.6-0.1-1.2-0.3-1.7-0.4 c-2.7-0.7-5.4-1.4-8.1-2.4l0,0C8.4,23.2,6.5,22,5,20.4c-1.5-1.7-2.2-4.3-2.2-6.8c0-2.6,0.8-4.9,2.3-6.9l0,0c1.5-2,3.6-3.5,6.3-4.5 l0,0l0,0c2.7-1,5.7-1.5,9-1.5c3.8,0,7.2,0.7,10,2.1c2.9,1.3,5.3,3.3,7,5.8c1.7,2.5,2.7,5.5,2.9,9l0.1,0.8H33l-0.1-0.6 c-0.4-3.4-1.7-6-3.8-7.9c-2.2-1.9-5-2.8-8.6-2.8c-2.3,0-4.3,0.4-6,1.1c-1.7,0.7-2.9,1.7-3.8,2.9l0,0l0,0l0,0 c-0.9,1.2-1.3,2.6-1.3,4.3c0,1.8,0.5,2.9,1.5,4c1.1,1.1,2.6,2,4.7,2.6c2.4,0.7,4.8,1.2,7.3,1.8c0.5,0.1,1,0.2,1.4,0.3 c2.9,0.6,5.9,1.3,8.8,2.5c2.1,0.8,3.9,2.3,5.1,3.8c1.4,1.6,2.1,3.8,2.1,6.3c0,2.6-0.8,4.9-2.3,6.9c-1.5,1.9-3.7,3.4-6.4,4.4l0,0l0,0 c-2.7,1-5.8,1.5-9.4,1.5C18.3,49.5,14.8,48.8,11.7,47.4L11.7,47.4z"></path> <path class="st1" d="M150.2,48.5V1.6h7.2v46.9H150.2z"></path> <path class="st1" d="M105.9,48.5V1.6h7.2v41.8c11.4,0,27.5-2.7,27.5-2.7v7.8H105.9z"></path> <path class="st1" d="M48.6,77V66.2h1.8V77H48.6z"></path> <path class="st1" d="M63.4,77l-7.2-9.8l1.4-1l7.2,9.8L63.4,77z M55.9,77V66.2h1.9l-0.1,1.5V77H55.9z M63.4,77V66.2h1.8V77H63.4z"></path> <path class="st1" d="M74.1,77l4.2-10.8h1.9L75.9,77H74.1z M73.9,77l-4.4-10.8h1.9L75.7,77H73.9z"></path> <path class="st1" d="M84.6,77V66.2h1.8V77H84.6z M86,77v-1.6h5.3V77H86z M86,72.3v-1.6h4.7v1.6H86z M86,67.8v-1.6h5.2v1.6H86z"></path> <path class="st1" d="M100.2,77.2c-0.6,0-1.1-0.1-1.6-0.2c-0.5-0.1-0.9-0.3-1.2-0.6c-0.3-0.2-0.6-0.5-0.9-0.8 c-0.2-0.3-0.4-0.6-0.5-0.9l1.8-0.5c0.1,0.4,0.4,0.7,0.8,1c0.4,0.3,0.9,0.4,1.5,0.4c0.7,0,1.2-0.1,1.6-0.4c0.4-0.3,0.6-0.6,0.6-1.1 c0-0.4-0.2-0.7-0.5-1c-0.3-0.3-0.8-0.5-1.3-0.6L99,72.1c-0.5-0.1-1-0.3-1.4-0.6c-0.4-0.3-0.7-0.6-1-1c-0.2-0.4-0.3-0.9-0.3-1.4 c0-1,0.3-1.8,1-2.4C98,66.3,99,66,100.2,66c0.7,0,1.3,0.1,1.8,0.3c0.5,0.2,1,0.5,1.3,0.9c0.3,0.4,0.6,0.8,0.8,1.2l-1.7,0.6 c-0.2-0.4-0.4-0.8-0.8-1c-0.4-0.3-0.9-0.4-1.4-0.4c-0.6,0-1,0.1-1.4,0.4c-0.3,0.3-0.5,0.7-0.5,1.2c0,0.4,0.1,0.7,0.4,0.9 c0.3,0.2,0.6,0.4,1.1,0.5l1.3,0.3c1,0.2,1.7,0.6,2.3,1.2c0.5,0.6,0.8,1.2,0.8,1.9c0,0.6-0.1,1.2-0.4,1.6c-0.3,0.5-0.7,0.8-1.3,1.1 C101.7,77,101,77.2,100.2,77.2z"></path> <path class="st1" d="M111.2,77v-9.9h1.8V77H111.2z M107.9,67.8v-1.6h8.4v1.6H107.9z"></path> <path class="st1" d="M120.7,77V66.2h1.8V77H120.7z"></path> <path class="st1" d="M133.3,74.2l-5.2-7.6l0.8-0.3l1-0.2l4.3,6.3L133.3,74.2z M128,77V66.2h1.8V77H128z M133.3,74.2l-0.9-1.7 l4.3-6.3l1,0.2l0.8,0.3L133.3,74.2z M136.8,77V66.2h1.8V77H136.8z"></path> <path class="st1" d="M144,77V66.2h1.8V77H144z M145.5,77v-1.6h5.3V77H145.5z M145.5,72.3v-1.6h4.7v1.6H145.5z M145.5,67.8v-1.6h5.2 v1.6H145.5z"></path> <path class="st1" d="M163.6,77l-7.2-9.8l1.4-1l7.2,9.8L163.6,77z M156.1,77V66.2h1.9l-0.1,1.5V77H156.1z M163.6,77V66.2h1.8V77 H163.6z"></path> <path class="st1" d="M173.2,77v-9.9h1.8V77H173.2z M169.8,67.8v-1.6h8.4v1.6H169.8z"></path> <path class="st1" d="M187.5,77.2c-1.1,0-2-0.2-2.8-0.7c-0.8-0.5-1.5-1.1-1.9-2c-0.5-0.8-0.7-1.8-0.7-2.9s0.2-2.1,0.7-2.9 c0.5-0.8,1.1-1.5,1.9-2c0.8-0.5,1.7-0.7,2.8-0.7c1.1,0,2,0.2,2.8,0.7c0.8,0.5,1.5,1.1,1.9,2c0.5,0.8,0.7,1.8,0.7,2.9 s-0.2,2.1-0.7,2.9c-0.5,0.8-1.1,1.5-1.9,2C189.4,76.9,188.5,77.2,187.5,77.2z M187.5,75.5c0.7,0,1.3-0.2,1.9-0.5 c0.5-0.3,1-0.8,1.2-1.4c0.3-0.6,0.5-1.3,0.5-2.1c0-0.8-0.2-1.4-0.5-2c-0.3-0.6-0.7-1.1-1.3-1.4c-0.5-0.3-1.2-0.5-1.9-0.5 c-0.7,0-1.3,0.2-1.9,0.5c-0.5,0.3-1,0.8-1.3,1.4c-0.3,0.6-0.5,1.3-0.5,2c0,0.8,0.2,1.5,0.5,2.1c0.3,0.6,0.8,1.1,1.3,1.4 C186.1,75.4,186.8,75.5,187.5,75.5z"></path> <path class="st1" d="M201.2,77.2c-0.6,0-1.1-0.1-1.6-0.2c-0.5-0.1-0.9-0.3-1.2-0.6c-0.4-0.2-0.6-0.5-0.9-0.8 c-0.2-0.3-0.4-0.6-0.5-0.9l1.8-0.5c0.1,0.4,0.4,0.7,0.8,1c0.4,0.3,0.9,0.4,1.4,0.4c0.7,0,1.2-0.1,1.6-0.4c0.4-0.3,0.6-0.6,0.6-1.1 c0-0.4-0.2-0.7-0.5-1c-0.3-0.3-0.8-0.5-1.3-0.6l-1.3-0.3c-0.5-0.1-1-0.3-1.4-0.6c-0.4-0.3-0.7-0.6-1-1c-0.2-0.4-0.3-0.9-0.3-1.4 c0-1,0.3-1.8,1-2.4c0.7-0.6,1.6-0.9,2.8-0.9c0.7,0,1.3,0.1,1.8,0.3c0.5,0.2,1,0.5,1.3,0.9c0.3,0.4,0.6,0.8,0.8,1.2l-1.7,0.6 c-0.2-0.4-0.4-0.8-0.8-1c-0.4-0.3-0.9-0.4-1.4-0.4c-0.6,0-1,0.1-1.4,0.4c-0.3,0.3-0.5,0.7-0.5,1.2c0,0.4,0.1,0.7,0.4,0.9 c0.3,0.2,0.6,0.4,1.1,0.5l1.3,0.3c1,0.2,1.7,0.6,2.3,1.2c0.5,0.6,0.8,1.2,0.8,1.9c0,0.6-0.1,1.2-0.4,1.6c-0.3,0.5-0.7,0.8-1.3,1.1 C202.7,77,202,77.2,201.2,77.2z"></path> </svg> 