<?xml version="1.0" encoding="UTF-8"?>
<svg id="Layer_2" data-name="Layer 2" xmlns="http://www.w3.org/2000/svg" viewBox="0 0 106.65 23.34">
  <defs>
    <style>
      .cls-1 {
        fill: #2b2c6b;
        stroke-width: 0px;
      }
    </style>
  </defs>
  <g id="Layer_1-2" data-name="Layer 1">
    <g>
      <g>
        <path class="cls-1" d="M33.26,8.02l.1,2.41h-.17s-.03-.44-.03-.44c-.07-.99-.43-1.79-1.91-1.79h-.56v6.97h1v.18h-3.04v-.18h1v-6.97h-.55c-1.46,0-1.86.76-1.92,1.79l-.02.45h-.17s.09-2.42.09-2.42h6.17Z"/>
        <path class="cls-1" d="M41.05,11.68c0,1.86-1.31,3.86-3.45,3.86s-3.45-2-3.45-3.86,1.31-3.86,3.45-3.86,3.45,2,3.45,3.86ZM37.6,7.99c-1.75,0-2.32,1.87-2.32,3.68s.58,3.68,2.32,3.68,2.32-1.87,2.32-3.68-.57-3.68-2.32-3.68Z"/>
        <path class="cls-1" d="M47.26,12.77h.18s-.13,2.58-.13,2.58h-5.61v-.18h1v-6.97h-1v-.18h3.04v.18h-1v6.97h1.41c1.55,0,2.02-.79,2.07-1.84l.03-.56Z"/>
        <path class="cls-1" d="M55.15,11.68c0,1.86-1.31,3.86-3.45,3.86s-3.45-2-3.45-3.86,1.31-3.86,3.45-3.86,3.45,2,3.45,3.86ZM51.7,7.99c-1.75,0-2.32,1.87-2.32,3.68s.58,3.68,2.32,3.68,2.32-1.87,2.32-3.68-.57-3.68-2.32-3.68Z"/>
        <path class="cls-1" d="M63.29,8.02v.18h-.07c-.83,0-1.15.57-1.15,2.06v2.43c0,2.12-1,2.86-2.59,2.86s-2.63-.75-2.63-2.68v-4.67h-1v-.18h3.02v.18h-.99v4.77c0,1.61.53,2.37,1.84,2.37s2.17-.75,2.17-2.63v-2.45c0-1.49-.28-2.06-1.14-2.06h-.08v-.18h2.62Z"/>
        <path class="cls-1" d="M72.65,13.02c-.08.78-.37,1.38-.84,1.8s-1.11.62-1.9.62c-.55,0-1.04-.14-1.46-.41-.42-.28-.75-.67-.98-1.17s-.35-1.08-.35-1.74v-.97c0-.66.12-1.25.35-1.76.23-.51.56-.91,1-1.18s.94-.42,1.5-.42c.8,0,1.43.21,1.89.64.46.43.73,1.02.8,1.78h-.63c-.16-1.26-.84-1.9-2.06-1.9-.67,0-1.21.25-1.61.76s-.6,1.2-.6,2.09v.91c0,.86.2,1.55.59,2.06.39.51.92.77,1.58.77s1.15-.16,1.49-.47c.33-.32.54-.79.62-1.42h.63Z"/>
        <path class="cls-1" d="M78.2,13.25h-3.38l-.77,2.09h-.66l2.82-7.44h.6l2.82,7.44h-.65l-.77-2.09ZM75.02,12.72h2.99l-1.49-4.05-1.49,4.05Z"/>
        <path class="cls-1" d="M81.35,12.31v3.03h-.63v-7.44h2.54c.77,0,1.38.2,1.83.59.45.4.67.94.67,1.63s-.22,1.24-.65,1.62c-.43.38-1.06.57-1.87.57h-1.89ZM81.35,11.78h1.91c.61,0,1.08-.15,1.4-.44.32-.29.48-.69.48-1.21s-.16-.93-.48-1.23c-.32-.31-.77-.46-1.36-.47h-1.95v3.35Z"/>
        <path class="cls-1" d="M87.94,15.34h-.63v-7.44h.63v7.44Z"/>
        <path class="cls-1" d="M95.01,8.43h-2.55v6.91h-.63v-6.91h-2.55v-.53h5.73v.53Z"/>
        <path class="cls-1" d="M99.82,13.25h-3.38l-.77,2.09h-.66l2.82-7.44h.6l2.82,7.44h-.65l-.77-2.09ZM96.64,12.72h2.99l-1.49-4.05-1.49,4.05Z"/>
        <path class="cls-1" d="M102.98,14.81h3.68v.53h-4.31v-7.44h.63v6.91Z"/>
      </g>
      <g>
        <g>
          <path class="cls-1" d="M5.08,15.59c-.35,0-.67-.19-.84-.48-.27-.46-.11-1.06.35-1.32.15-.08.31-.13.48-.13.35,0,.67.19.84.48.13.22.16.48.1.73-.07.25-.23.46-.45.59-.15.08-.31.13-.48.13Z"/>
          <circle class="cls-1" cx="5.08" cy="14.62" r=".87"/>
          <path class="cls-1" d="M2.63,16.78c-.27,0-.51-.14-.65-.37-.21-.36-.08-.81.27-1.02.11-.07.24-.1.37-.1.27,0,.51.14.65.37.21.36.08.81-.27,1.02-.11.07-.24.1-.37.1Z"/>
          <circle class="cls-1" cx="2.63" cy="16.04" r=".65"/>
          <path class="cls-1" d="M.65,17.83c-.23,0-.45-.12-.56-.32-.09-.15-.11-.32-.06-.49.04-.17.15-.31.3-.39.1-.06.21-.09.32-.09.23,0,.45.12.56.32.09.15.11.32.06.49-.04.17-.15.31-.3.39-.1.06-.21.09-.32.09Z"/>
          <circle class="cls-1" cx=".65" cy="17.18" r=".55"/>
          <path class="cls-1" d="M5.08,9.69c-.17,0-.34-.04-.48-.13-.22-.13-.38-.34-.45-.59s-.03-.51.1-.73c.17-.3.49-.48.84-.48.17,0,.34.04.48.13.22.13.38.34.45.59.07.25.03.51-.1.73-.17.3-.49.48-.84.48Z"/>
          <circle class="cls-1" cx="5.08" cy="8.72" r=".87"/>
          <path class="cls-1" d="M2.63,8.05c-.13,0-.26-.03-.37-.1-.36-.21-.48-.66-.27-1.02.13-.23.38-.37.65-.37.13,0,.26.03.37.1.36.21.48.66.27,1.02-.13.23-.38.37-.65.37Z"/>
          <circle class="cls-1" cx="2.63" cy="7.3" r=".65"/>
          <path class="cls-1" d="M.65,6.8c-.11,0-.22-.03-.32-.09-.31-.18-.42-.58-.24-.88.11-.2.33-.32.56-.32.11,0,.22.03.32.09.31.18.42.57.24.88-.12.2-.33.32-.56.32Z"/>
          <circle class="cls-1" cx=".65" cy="6.16" r=".55"/>
          <path class="cls-1" d="M10.19,6.73c-.53,0-.97-.43-.97-.97s.43-.97.97-.97.97.43.97.97-.43.97-.97.97Z"/>
          <path class="cls-1" d="M11.06,5.77c0,.48-.39.87-.87.87s-.87-.39-.87-.87.39-.87.87-.87.87.39.87.87Z"/>
          <path class="cls-1" d="M10.19,3.68c-.41,0-.75-.33-.75-.75s.33-.75.75-.75.75.33.75.75-.33.75-.75.75Z"/>
          <path class="cls-1" d="M10.84,2.93c0,.36-.29.65-.65.65s-.65-.29-.65-.65.29-.65.65-.65.65.29.65.65Z"/>
          <path class="cls-1" d="M10.19,1.29c-.36,0-.65-.29-.65-.65s.29-.65.65-.65.65.29.65.65-.29.65-.65.65Z"/>
          <circle class="cls-1" cx="10.19" cy=".65" r=".55"/>
          <path class="cls-1" d="M15.3,9.69c-.35,0-.67-.19-.84-.48-.13-.22-.16-.48-.1-.73.07-.25.23-.46.45-.59.15-.08.31-.13.48-.13.35,0,.67.19.84.48.13.22.16.48.1.73s-.23.46-.45.59c-.15.08-.31.13-.48.13Z"/>
          <circle class="cls-1" cx="15.3" cy="8.72" r=".87"/>
          <path class="cls-1" d="M17.76,8.05c-.27,0-.51-.14-.65-.37-.21-.36-.08-.81.27-1.02.11-.07.24-.1.37-.1.27,0,.51.14.65.37.1.17.13.37.07.57-.05.19-.18.35-.35.45-.11.07-.24.1-.37.1Z"/>
          <circle class="cls-1" cx="17.76" cy="7.3" r=".65"/>
          <path class="cls-1" d="M19.74,6.8c-.23,0-.45-.12-.56-.32-.18-.31-.07-.71.24-.88.1-.06.21-.09.32-.09.23,0,.45.12.56.32.18.31.07.71-.24.88-.1.06-.21.09-.32.09Z"/>
          <circle class="cls-1" cx="19.74" cy="6.16" r=".55"/>
          <path class="cls-1" d="M15.3,15.59c-.17,0-.34-.04-.48-.13-.22-.13-.38-.34-.45-.59-.07-.25-.03-.51.1-.73.17-.3.49-.48.84-.48.17,0,.34.04.48.13.22.13.38.34.45.59.07.25.03.51-.1.73-.17.3-.49.48-.84.48Z"/>
          <circle class="cls-1" cx="15.3" cy="14.62" r=".87"/>
          <path class="cls-1" d="M17.76,16.78c-.13,0-.26-.03-.37-.1-.36-.21-.48-.66-.27-1.02.13-.23.38-.37.65-.37.13,0,.26.03.37.1.17.1.3.26.35.45.05.19.03.39-.07.57-.13.23-.38.37-.65.37Z"/>
          <circle class="cls-1" cx="17.76" cy="16.04" r=".65"/>
          <path class="cls-1" d="M19.74,17.83c-.11,0-.22-.03-.32-.09-.15-.09-.26-.23-.3-.39-.04-.17-.02-.34.06-.49.12-.2.33-.32.56-.32.11,0,.22.03.32.09.15.09.26.23.3.39.04.17.02.34-.06.49-.11.2-.33.32-.56.32Z"/>
          <circle class="cls-1" cx="19.74" cy="17.18" r=".55"/>
          <path class="cls-1" d="M10.19,18.54c-.53,0-.97-.43-.97-.97s.43-.97.97-.97.97.43.97.97-.43.97-.97.97Z"/>
          <circle class="cls-1" cx="10.19" cy="17.57" r=".87"/>
          <path class="cls-1" d="M10.19,21.15c-.41,0-.75-.33-.75-.75s.33-.75.75-.75.75.33.75.75-.33.75-.75.75Z"/>
          <circle class="cls-1" cx="10.19" cy="20.4" r=".65"/>
          <path class="cls-1" d="M10.19,23.34c-.36,0-.65-.29-.65-.65s.29-.65.65-.65.65.29.65.65-.29.65-.65.65Z"/>
          <circle class="cls-1" cx="10.19" cy="22.69" r=".55"/>
        </g>
        <g>
          <path class="cls-1" d="M7.14,17.85c-.16,0-.31-.04-.45-.12-.21-.12-.36-.31-.42-.54s-.03-.47.09-.68c.16-.28.46-.45.78-.45.16,0,.31.04.45.12.21.12.36.31.42.54s.03.47-.09.68c-.16.28-.46.45-.78.45Z"/>
          <circle class="cls-1" cx="7.14" cy="16.95" r=".8"/>
          <path class="cls-1" d="M5.73,20.17c-.13,0-.27-.04-.39-.1-.37-.21-.5-.69-.28-1.06.14-.24.39-.39.67-.39.13,0,.27.04.39.1.37.21.5.69.28,1.06-.14.24-.39.39-.67.39Z"/>
          <circle class="cls-1" cx="5.73" cy="19.39" r=".67"/>
          <path class="cls-1" d="M4.09,12.56c-.49,0-.9-.4-.9-.9s.4-.9.9-.9.9.4.9.9-.4.9-.9.9Z"/>
          <path class="cls-1" d="M4.09,10.87c.44,0,.8.36.8.8s-.36.8-.8.8-.8-.36-.8-.8.36-.8.8-.8Z"/>
          <path class="cls-1" d="M1.27,12.44c-.43,0-.77-.35-.77-.77s.35-.77.77-.77.77.35.77.77-.35.77-.77.77Z"/>
          <path class="cls-1" d="M1.27,10.99c.37,0,.67.3.67.67s-.3.67-.67.67-.67-.3-.67-.67.3-.67.67-.67Z"/>
          <path class="cls-1" d="M7.14,7.28c-.32,0-.62-.17-.78-.45-.25-.43-.1-.98.33-1.22.14-.08.29-.12.45-.12.32,0,.62.17.78.45.25.43.1.98-.33,1.22-.14.08-.29.12-.45.12Z"/>
          <circle class="cls-1" cx="7.14" cy="6.39" r=".8"/>
          <path class="cls-1" d="M5.73,4.72c-.28,0-.53-.15-.67-.39-.21-.37-.09-.84.28-1.06.12-.07.25-.1.39-.1.28,0,.53.15.67.39.21.37.09.84-.28,1.06-.12.07-.25.1-.39.1Z"/>
          <circle class="cls-1" cx="5.73" cy="3.95" r=".67"/>
          <path class="cls-1" d="M13.24,7.28c-.16,0-.31-.04-.45-.12-.43-.25-.58-.8-.33-1.22.16-.28.46-.45.78-.45.16,0,.31.04.45.12.21.12.36.31.42.54.06.23.03.47-.09.68-.16.28-.46.45-.78.45Z"/>
          <circle class="cls-1" cx="13.24" cy="6.39" r=".8"/>
          <path class="cls-1" d="M14.65,4.72c-.13,0-.27-.04-.39-.1-.37-.21-.5-.69-.28-1.06.14-.24.39-.39.67-.39.14,0,.27.04.39.1.37.21.5.69.28,1.06-.14.24-.39.39-.67.39Z"/>
          <circle class="cls-1" cx="14.65" cy="3.95" r=".67"/>
          <path class="cls-1" d="M16.29,12.56c-.49,0-.9-.4-.9-.9s.4-.9.9-.9.9.4.9.9-.4.9-.9.9Z"/>
          <circle class="cls-1" cx="16.29" cy="11.67" r=".8"/>
          <path class="cls-1" d="M19.11,12.44c-.43,0-.77-.35-.77-.77s.35-.77.77-.77.77.35.77.77-.35.77-.77.77Z"/>
          <path class="cls-1" d="M19.11,12.34c-.37,0-.67-.3-.67-.67s.3-.67.67-.67.67.3.67.67c0,.37-.3.67-.67.67Z"/>
          <path class="cls-1" d="M13.24,17.85c-.32,0-.62-.17-.78-.45-.12-.21-.15-.45-.09-.68s.21-.42.42-.54c.14-.08.29-.12.45-.12.32,0,.62.17.78.45.12.21.15.45.09.68s-.21.42-.42.54c-.14.08-.29.12-.45.12Z"/>
          <circle class="cls-1" cx="13.24" cy="16.95" r=".8"/>
          <path class="cls-1" d="M14.65,20.17c-.28,0-.53-.15-.67-.39-.21-.37-.09-.84.28-1.06.12-.07.25-.1.39-.1.28,0,.53.15.67.39.21.37.09.84-.28,1.06-.12.07-.25.1-.39.1Z"/>
          <circle class="cls-1" cx="14.65" cy="19.39" r=".67"/>
        </g>
      </g>
    </g>
  </g>
</svg>