<?xml version="1.0" encoding="UTF-8"?>
<svg width="187px" height="40px" viewBox="0 0 187 40" version="1.1" xmlns="http://www.w3.org/2000/svg" xmlns:xlink="http://www.w3.org/1999/xlink">
    <title>A9B1377F-38B5-4FCB-8C4B-BE506643A84A</title>
    <g id="Page-1" stroke="none" stroke-width="1" fill="none" fill-rule="evenodd">
        <g id="1440px---Contact-Us" transform="translate(-130.000000, -20.000000)">
            <g id="Nav-Desktop" transform="translate(0.000000, -0.000000)">
                <g id="Full-Color-Logo" transform="translate(130.000000, 20.000000)">
                    <g id="Logo" transform="translate(-0.000055, 0.136801)">
                        <polygon id="Fill-40" fill="#F05B45" points="5.27318819 28.9295161 12.1026422 28.9295161 12.1026422 5.50592098 5.27318819 5.50592098"></polygon>
                        <polygon id="Fill-42" fill="#FFC30C" points="40.8912892 28.9295161 47.7206064 28.9295161 47.7206064 13.3708247 40.8912892 13.3708247"></polygon>
                        <path d="M49.7889889,7.67643962 C41.0096888,13.5718004 34.1762681,8.7634566 32.9427562,7.78504557 C32.0071583,7.04285931 30.9926365,6.29916845 29.911638,5.58078249 L29.911638,5.50582523 L29.7996124,5.50582523 C23.498142,1.34720218 14.896797,-1.9012647 5.56831187,1.28318759 C3.39701356,2.02455315 1.53306737,3.00816195 1.56319402e-13,4.00161915 L1.56319402e-13,11.3684948 C2.14654052,9.20253103 10.51467,2.1216693 23.082184,8.32274077 L23.082184,28.9294204 L29.911638,28.9294204 L29.911638,12.7405682 C32.2944033,14.3893542 36.4388009,16.1630235 41.3363274,16.1627499 C44.9565713,16.1624763 48.9882594,15.1926826 53.0187165,12.4864248 L53.0187165,5.50582523 L49.7889889,7.67643962 Z" id="Fill-43" fill="#014962"></path>
                    </g>
                    <path d="M108.557638,30.2047509 C110.716216,30.2047509 112.253113,31.6595783 112.253113,34.4282093 C112.253113,37.1852137 110.716216,38.6282777 108.557638,38.6282777 C106.398924,38.6282777 104.873927,37.1852137 104.873927,34.4282093 C104.873927,31.6595783 106.398924,30.2047509 108.557638,30.2047509 Z M165.973774,30.2048193 C167.534061,30.2048193 168.519585,30.9556229 169.059332,31.9998267 L167.815698,32.9265337 C167.381548,32.2226468 166.865464,31.7886333 165.962011,31.7886333 C164.671597,31.7886333 163.885503,32.6684236 163.885503,34.4282777 C163.885503,36.1881318 164.671597,37.0561587 165.962011,37.0561587 C166.771494,37.0561587 167.287851,36.7159786 167.768781,36.0120916 L169.024042,36.927172 C168.308528,38.0768357 167.276088,38.6283461 165.962011,38.6283461 C163.79167,38.6283461 162.172703,37.1852821 162.172703,34.4165143 C162.172703,31.6712732 163.779907,30.2048193 165.973774,30.2048193 Z M92.7428747,30.2048193 C94.303162,30.2048193 95.2886857,30.9556229 95.8284327,31.9998267 L94.5847988,32.9265337 C94.1506486,32.2226468 93.6345651,31.7886333 92.7311114,31.7886333 C91.4406976,31.7886333 90.6546039,32.6684236 90.6546039,34.4282777 C90.6546039,36.1881318 91.4406976,37.0561587 92.7311114,37.0561587 C93.540595,37.0561587 94.056952,36.7159786 94.5378821,36.0120916 L95.7931426,36.927172 C95.0776291,38.0768357 94.0451886,38.6283461 92.7311114,38.6283461 C90.5607705,38.6283461 88.9418033,37.1852821 88.9418033,34.4165143 C88.9418033,31.6712732 90.5490072,30.2048193 92.7428747,30.2048193 Z M134.94251,30.2751807 C136.573241,30.2751807 137.558764,30.9437775 138.063358,31.5655944 L136.866641,32.6097982 C136.373811,32.1171048 135.740367,31.8003146 134.86044,31.8003146 C134.06272,31.8003146 133.546499,32.0584247 133.546499,32.5394916 C133.546499,32.9383518 133.886816,33.1026285 134.20347,33.2198518 C134.872203,33.4661986 135.857727,33.5717953 136.678974,33.8885854 C137.558764,34.2287655 138.274415,34.8154292 138.274415,36.0237729 C138.274415,37.7014203 136.878404,38.569584 134.89573,38.569584 C133.182793,38.569584 131.986212,37.9243771 131.329105,37.1031301 L132.596266,36.0589263 C133.182793,36.6689798 133.933596,37.0796033 135.00119,37.0796033 C136.057157,37.0796033 136.620294,36.6807432 136.620294,36.0355363 C136.620294,35.5193161 136.268351,35.3434127 135.8342,35.2025259 C135.17723,34.9913325 134.250386,34.8505825 133.417513,34.5104024 C132.549212,34.1583221 131.904005,33.6656286 131.904005,32.6097982 C131.904005,31.2371777 132.983363,30.2751807 134.94251,30.2751807 Z M172.23871,30.3573054 L172.23871,33.5365599 L175.183381,33.5365599 L175.183381,30.3573054 L176.908082,30.3573054 L176.908082,38.4758053 L175.183381,38.4758053 L175.183381,35.1203739 L172.23871,35.1203739 L172.23871,38.4758053 L170.525909,38.4758053 L170.525909,30.3573054 L172.23871,30.3573054 Z M120.52399,30.357278 C122.27208,30.357278 123.445271,31.2136783 123.445271,32.9147156 C123.445271,34.1349595 122.846844,34.9092899 121.884847,35.2612333 L123.844131,38.475778 L121.908373,38.475778 L120.160283,35.4724268 L118.834579,35.4724268 L118.834579,38.475778 L117.121641,38.475778 L117.121641,30.357278 L120.52399,30.357278 Z M157.996079,30.357278 C159.74417,30.357278 160.91736,31.2136783 160.91736,32.9147156 C160.91736,34.1349595 160.318933,34.9092899 159.356936,35.2612333 L161.31622,38.475778 L159.380463,38.475778 L157.632372,35.4724268 L156.306668,35.4724268 L156.306668,38.475778 L154.593731,38.475778 L154.593731,30.357278 L157.996079,30.357278 Z M150.511091,30.3572643 L153.526205,38.4757643 L151.707671,38.4757643 L151.168061,36.9390038 L148.047487,36.9390038 L147.519503,38.4757643 L145.712732,38.4757643 L148.692557,30.3572643 L150.511091,30.3572643 Z M144.950042,30.3573054 L144.950042,31.9411193 L141.313111,31.9411193 L141.313111,33.57185 L143.894075,33.57185 L143.894075,35.0969839 L141.313111,35.0969839 L141.313111,36.8918546 L145.032249,36.8918546 L145.032249,38.4758053 L139.60031,38.4758053 L139.60031,30.3573054 L144.950042,30.3573054 Z M130.367122,30.3573054 L130.367122,31.9411193 L126.73019,31.9411193 L126.73019,33.57185 L129.311155,33.57185 L129.311155,35.0969839 L126.73019,35.0969839 L126.73019,36.8918546 L130.449329,36.8918546 L130.449329,38.4758053 L125.01739,38.4758053 L125.01739,30.3573054 L130.367122,30.3573054 Z M73.5023322,30.3573054 L75.8369497,35.4958441 L78.1715673,30.3573054 L79.8492146,30.3573054 L79.8492146,38.4758053 L78.136414,38.4758053 L78.136414,34.2873635 L76.1537399,38.4758053 L75.4263262,38.4758053 L73.4436521,34.2288202 L73.4436521,38.4758053 L71.7307147,38.4758053 L71.7307147,30.3573054 L73.5023322,30.3573054 Z M85.59793,30.3572643 L88.6130446,38.4757643 L86.7946472,38.4757643 L86.255037,36.9390038 L83.1343258,36.9390038 L82.6063422,38.4757643 L80.7997082,38.4757643 L83.7795327,30.3572643 L85.59793,30.3572643 Z M100.697098,30.357278 C102.445189,30.357278 103.618379,31.2136783 103.618379,32.9147156 C103.618379,34.1349595 103.019952,34.9092899 102.057955,35.2612333 L104.017239,38.475778 L102.081482,38.475778 L100.333391,35.4724268 L99.0076872,35.4724268 L99.0076872,38.475778 L97.2947498,38.475778 L97.2947498,30.357278 L100.697098,30.357278 Z M108.557638,31.7885649 C107.349158,31.7885649 106.586591,32.6802553 106.586591,34.4282093 C106.586591,36.1763 107.349158,37.0562271 108.557638,37.0562271 C109.754219,37.0562271 110.551939,36.1763 110.551939,34.4282093 C110.551939,32.6802553 109.754219,31.7885649 108.557638,31.7885649 Z M84.6828497,32.4221452 L83.650546,35.4372598 L85.7388168,35.4372598 L84.6828497,32.4221452 Z M149.59601,32.4221452 L148.56357,35.4372598 L150.651978,35.4372598 L149.59601,32.4221452 Z M100.732251,31.9059387 L98.9959239,31.9059387 L98.9959239,34.0175995 L100.732251,34.0175995 C101.471428,34.0175995 101.987648,33.6891827 101.987648,32.9500057 C101.987648,32.2227288 101.471428,31.9059387 100.732251,31.9059387 Z M120.559143,31.9059387 L118.822815,31.9059387 L118.822815,34.0175995 L120.559143,34.0175995 C121.29832,34.0175995 121.81454,33.6891827 121.81454,32.9500057 C121.81454,32.2227288 121.29832,31.9059387 120.559143,31.9059387 Z M158.031232,31.9059387 L156.294905,31.9059387 L156.294905,34.0175995 L158.031232,34.0175995 C158.770409,34.0175995 159.286493,33.6891827 159.286493,32.9500057 C159.286493,32.2227288 158.770409,31.9059387 158.031232,31.9059387 Z M128.148797,0.850121965 L128.148797,10.2939154 L138.436544,10.2939154 L138.436544,0.850121965 L141.7467,0.850121965 L141.7467,23.3076166 L138.436544,23.3076166 L138.436544,13.3770113 L128.148797,13.3770113 L128.148797,23.3076166 L124.838641,23.3076166 L124.838641,0.850121965 L128.148797,0.850121965 Z M156.934859,0.85008093 L165.567254,23.3075755 L162.062318,23.3075755 L160.27757,18.4721486 L150.119767,18.4721486 L148.367163,23.3075755 L144.862227,23.3075755 L153.397506,0.85008093 L156.934859,0.85008093 Z M171.993197,0.850121965 L182.702784,17.4011763 L182.702784,0.850121965 L186.01294,0.850121965 L186.01294,23.3076166 L182.929981,23.3076166 L171.993197,6.91878719 L171.993197,23.3076166 L168.683041,23.3076166 L168.683041,0.850121965 L171.993197,0.850121965 Z M78.008631,0.850121965 L78.008631,3.93321783 L71.2583746,3.93321783 L71.2583746,23.3076166 L67.9482184,23.3076166 L67.9482184,3.93321783 L61.1331266,3.93321783 L61.1331266,0.850121965 L78.008631,0.850121965 Z M90.665314,0.850094608 C95.2088453,0.850094608 98.2271059,3.15420951 98.2271059,7.76257609 C98.2271059,11.332347 96.4095292,13.5067913 93.5212128,14.3181899 L99.2979824,23.3075892 L95.5332953,23.3075892 L90.1460846,14.6750576 L84.7914282,14.6750576 L84.7914282,23.3075892 L81.4811353,23.3075892 L81.4811353,0.850094608 L90.665314,0.850094608 Z M113.090596,0.85008093 L121.722991,23.3075755 L118.218055,23.3075755 L116.433307,18.4721486 L106.275504,18.4721486 L104.5229,23.3075755 L101.017964,23.3075755 L109.553243,0.85008093 L113.090596,0.85008093 Z M111.305574,4.64718568 L107.346381,15.5188601 L115.329876,15.5188601 L111.305574,4.64718568 Z M155.149837,4.64718568 L151.190644,15.5188601 L159.174139,15.5188601 L155.149837,4.64718568 Z M90.7302861,3.8682184 L84.7914282,3.8682184 L84.7914282,11.8192956 L90.7302861,11.8192956 C93.3265702,11.8192956 95.079038,10.5535028 95.079038,7.82754816 C95.079038,5.13387439 93.3265702,3.8682184 90.7302861,3.8682184 Z" id="Combined-Shape" fill="#014962"></path>
                </g>
            </g>
        </g>
    </g>
</svg>