<svg xmlns="http://www.w3.org/2000/svg" xmlns:xlink="http://www.w3.org/1999/xlink" width="174" height="65" viewBox="0 0 174 65"><defs><path id="v47za" d="M80.7 82.2h12.92v1.96h-5.38v13.68h-2.16V84.16H80.7z"/><path id="v47zb" d="M115.54 87.44c0 2.51-1.4 4.12-3.49 4.89v.06l4.05 4.96v.42h-2.37l-4.12-5.1h-4.75v5.1h-2.16V82.2h6.56c3.84 0 6.28 1.82 6.28 5.24m-6.35-3.28h-4.33v6.63h4.54c2.3 0 3.9-1.05 3.9-3.28 0-2.24-1.67-3.35-4.11-3.35"/><path id="v47zc" d="M125.6 97.84V82.2h2.16v15.64z"/><path id="v47zd" d="M138.37 91.28V82.2h2.17v9.08c0 2.8 1.53 4.89 4.54 4.89 3 0 4.53-2.1 4.53-4.9V82.2h2.17v9.08c0 4.05-2.44 6.91-6.63 6.91-4.33 0-6.78-2.86-6.78-6.91"/><path id="v47ze" d="M175.52 86.88l-5.3 5.65h-.57l-5.3-5.65v10.96h-2.1V82.2h.56l7.12 7.47 7.12-7.47h.56v15.64h-2.1z"/><path id="v47zf" d="M95.02 123.05S93.27 125 89.57 125a7.92 7.92 0 0 1-8.17-8.17c0-4.6 3.28-8.17 8.17-8.17 3.7 0 5.45 1.96 5.45 1.96l-1.26 1.74s-1.6-1.6-4.19-1.6c-3.56 0-6 2.72-6 6.14 0 3.35 2.44 6.15 6 6.15a6.1 6.1 0 0 0 4.19-1.61z"/><path id="v47zg" d="M109.89 109.08h.42l7.75 15.64h-2.45l-1.25-2.58h-8.52l-1.26 2.58h-2.44zm.35 4.2h-.28l-3.07 6.7-.14.27h6.7l-.14-.28z"/><path id="v47zh" d="M126.71 109.08h6.57c3.9 0 6.28 1.82 6.28 5.24 0 3.56-2.58 5.44-6.42 5.44h-4.33v4.9h-2.17v-15.58zm6.5 1.96h-4.33v6.84h4.33c2.51 0 4.12-1.05 4.12-3.5 0-2.3-1.6-3.34-4.12-3.34"/><path id="v47zi" d="M148.99 124.72v-15.64h2.16v15.64z"/><path id="v47zj" d="M160.16 109.08h12.91v1.96h-5.37v13.68h-2.17v-13.68h-5.37z"/><path id="v47zk" d="M186.06 109.08h.42l7.82 15.64h-2.45l-1.25-2.58H182l-1.26 2.58h-2.44zm.35 4.2h-.28l-3.07 6.7-.14.27h6.7l-.14-.28z"/><path id="v47zl" d="M202.89 124.72v-15.64h2.16v13.69h8.94v1.95z"/><path id="v47zm" d="M70.65 81.71l-14.6-5.65-5.3 10.05L40 90.51z"/><path id="v47zn" d="M40 90.51L48.94 60l-2.3 12.43 9.41 3.64-5.3 10.04L40 90.51z"/><path id="v47zo" d="M48.94 60l-2.3 12.43 24.01 9.28z"/></defs><g><g transform="translate(-40 -60)"><g><g><g><use fill="#fff" xlink:href="#v47za"/></g><g><g><use fill="#fff" xlink:href="#v47zb"/></g></g><g><use fill="#fff" xlink:href="#v47zc"/></g><g><g><use fill="#fff" xlink:href="#v47zd"/></g></g><g><use fill="#fff" xlink:href="#v47ze"/></g></g><g><g><g><use fill="#fff" xlink:href="#v47zf"/></g></g><g><use fill="#fff" xlink:href="#v47zg"/></g><g><g><use fill="#fff" xlink:href="#v47zh"/></g></g><g><use fill="#fff" xlink:href="#v47zi"/></g><g><use fill="#fff" xlink:href="#v47zj"/></g><g><use fill="#fff" xlink:href="#v47zk"/></g><g><use fill="#fff" xlink:href="#v47zl"/></g></g></g><g><g opacity=".6"><use fill="#fff" xlink:href="#v47zm"/></g><g opacity=".3"><use fill="#fff" xlink:href="#v47zn"/></g><g><use fill="#fff" xlink:href="#v47zo"/></g></g></g></g></svg>